STARTFONT 2.1
FONTBOUNDINGBOX 16 24 0 0
STARTPROPERTIES 2
FONT_ASCENT 24
FONT_DESCENT 0
ENDPROPERTIES
CHARS 329
STARTCHAR 32
ENCODING 32
SWIDTH 520 0
DWIDTH 5 0
BBX 5 24 0 0
BITMAP
00
00
00
00
00
00
00
00
00
00
00
00
00
00
00
00
00
00
00
00
00
00
00
00
ENDCHAR
STARTCHAR 33
ENCODING 33
SWIDTH 520 0
DWIDTH 5 0
BBX 5 24 0 0
BITMAP
00
00
00
00
00
00
60
60
60
60
60
60
60
60
60
60
60
00
60
60
00
00
00
00
ENDCHAR
STARTCHAR 34
ENCODING 34
SWIDTH 520 0
DWIDTH 8 0
BBX 8 24 0 0
BITMAP
00
00
00
00
00
00
66
66
66
66
66
00
00
00
00
00
00
00
00
00
00
00
00
00
ENDCHAR
STARTCHAR 35
ENCODING 35
SWIDTH 520 0
DWIDTH 9 0
BBX 9 24 0 0
BITMAP
0000
0000
0000
0000
0000
0000
3300
3300
3300
3300
ff80
ff80
3300
6600
ff80
ff80
6600
6600
6600
6600
0000
0000
0000
0000
ENDCHAR
STARTCHAR 36
ENCODING 36
SWIDTH 520 0
DWIDTH 9 0
BBX 9 24 0 0
BITMAP
0000
0000
0000
0000
0000
0800
1e00
3f00
6b80
6980
6800
7800
3e00
1f00
0f80
6980
6980
3b80
3f00
1e00
0800
0800
0000
0000
ENDCHAR
STARTCHAR 37
ENCODING 37
SWIDTH 520 0
DWIDTH 15 0
BBX 15 24 0 0
BITMAP
0000
0000
0000
0000
0000
0000
3860
7c60
6cc0
6cc0
6cc0
7d80
3980
0338
037c
066c
066c
066c
0c7c
0c38
0000
0000
0000
0000
ENDCHAR
STARTCHAR 38
ENCODING 38
SWIDTH 520 0
DWIDTH 12 0
BBX 12 24 0 0
BITMAP
0000
0000
0000
0000
0000
0000
1f00
3f80
3180
3180
3b80
1f00
1c00
3e00
7760
63e0
61c0
73e0
3ff0
1f20
0000
0000
0000
0000
ENDCHAR
STARTCHAR 39
ENCODING 39
SWIDTH 520 0
DWIDTH 4 0
BBX 4 24 0 0
BITMAP
00
00
00
00
00
00
60
60
60
60
60
00
00
00
00
00
00
00
00
00
00
00
00
00
ENDCHAR
STARTCHAR 40
ENCODING 40
SWIDTH 520 0
DWIDTH 5 0
BBX 5 24 0 0
BITMAP
00
00
00
00
00
00
18
30
30
30
70
60
60
60
60
60
60
60
60
30
30
30
30
18
ENDCHAR
STARTCHAR 41
ENCODING 41
SWIDTH 520 0
DWIDTH 5 0
BBX 5 24 0 0
BITMAP
00
00
00
00
00
00
c0
60
60
60
30
30
30
30
30
30
30
30
30
60
60
60
60
c0
ENDCHAR
STARTCHAR 42
ENCODING 42
SWIDTH 520 0
DWIDTH 6 0
BBX 6 24 0 0
BITMAP
00
00
00
00
00
00
30
30
fc
78
30
78
48
00
00
00
00
00
00
00
00
00
00
00
ENDCHAR
STARTCHAR 43
ENCODING 43
SWIDTH 520 0
DWIDTH 10 0
BBX 10 24 0 0
BITMAP
0000
0000
0000
0000
0000
0000
0000
0000
0c00
0c00
0c00
0c00
7f80
7f80
0c00
0c00
0c00
0c00
0000
0000
0000
0000
0000
0000
ENDCHAR
STARTCHAR 44
ENCODING 44
SWIDTH 520 0
DWIDTH 5 0
BBX 5 24 0 0
BITMAP
00
00
00
00
00
00
00
00
00
00
00
00
00
00
00
00
00
00
60
60
20
20
40
00
ENDCHAR
STARTCHAR 45
ENCODING 45
SWIDTH 520 0
DWIDTH 5 0
BBX 5 24 0 0
BITMAP
00
00
00
00
00
00
00
00
00
00
00
00
00
00
f0
f0
00
00
00
00
00
00
00
00
ENDCHAR
STARTCHAR 46
ENCODING 46
SWIDTH 520 0
DWIDTH 5 0
BBX 5 24 0 0
BITMAP
00
00
00
00
00
00
00
00
00
00
00
00
00
00
00
00
00
00
60
60
00
00
00
00
ENDCHAR
STARTCHAR 47
ENCODING 47
SWIDTH 520 0
DWIDTH 5 0
BBX 5 24 0 0
BITMAP
00
00
00
00
00
00
18
18
30
30
30
30
30
60
60
60
60
60
c0
c0
00
00
00
00
ENDCHAR
STARTCHAR 48
ENCODING 48
SWIDTH 520 0
DWIDTH 9 0
BBX 9 24 0 0
BITMAP
0000
0000
0000
0000
0000
0000
3c00
7e00
6600
c300
c300
c300
c300
c300
c300
c300
c300
6600
7e00
3c00
0000
0000
0000
0000
ENDCHAR
STARTCHAR 49
ENCODING 49
SWIDTH 520 0
DWIDTH 9 0
BBX 9 24 0 0
BITMAP
0000
0000
0000
0000
0000
0000
0c00
0c00
1c00
3c00
6c00
4c00
0c00
0c00
0c00
0c00
0c00
0c00
0c00
0c00
0000
0000
0000
0000
ENDCHAR
STARTCHAR 50
ENCODING 50
SWIDTH 520 0
DWIDTH 9 0
BBX 9 24 0 0
BITMAP
0000
0000
0000
0000
0000
0000
3c00
7e00
e300
c300
0300
0300
0600
0e00
1c00
3800
7000
6000
ff00
ff00
0000
0000
0000
0000
ENDCHAR
STARTCHAR 51
ENCODING 51
SWIDTH 520 0
DWIDTH 9 0
BBX 9 24 0 0
BITMAP
0000
0000
0000
0000
0000
0000
1c00
3e00
7300
6300
0300
0e00
0e00
0300
0300
0300
6300
7700
3e00
1c00
0000
0000
0000
0000
ENDCHAR
STARTCHAR 52
ENCODING 52
SWIDTH 520 0
DWIDTH 9 0
BBX 9 24 0 0
BITMAP
0000
0000
0000
0000
0000
0000
0600
0e00
0e00
1e00
1e00
3600
7600
6600
c600
ff00
ff00
0600
0600
0600
0000
0000
0000
0000
ENDCHAR
STARTCHAR 53
ENCODING 53
SWIDTH 520 0
DWIDTH 9 0
BBX 9 24 0 0
BITMAP
0000
0000
0000
0000
0000
0000
7e00
7e00
6000
e000
dc00
fe00
e700
0300
0300
0300
c300
e600
7e00
3c00
0000
0000
0000
0000
ENDCHAR
STARTCHAR 54
ENCODING 54
SWIDTH 520 0
DWIDTH 9 0
BBX 9 24 0 0
BITMAP
0000
0000
0000
0000
0000
0000
1c00
3e00
3300
6300
6000
7c00
7e00
6700
6300
6300
6300
3300
3e00
1c00
0000
0000
0000
0000
ENDCHAR
STARTCHAR 55
ENCODING 55
SWIDTH 520 0
DWIDTH 9 0
BBX 9 24 0 0
BITMAP
0000
0000
0000
0000
0000
0000
7f00
7f00
0700
0600
0c00
0c00
1c00
1800
1800
1800
3000
3000
3000
3000
0000
0000
0000
0000
ENDCHAR
STARTCHAR 56
ENCODING 56
SWIDTH 520 0
DWIDTH 9 0
BBX 9 24 0 0
BITMAP
0000
0000
0000
0000
0000
0000
3e00
7f00
6300
6300
6300
3e00
3e00
7700
6300
6300
6300
7700
3e00
1c00
0000
0000
0000
0000
ENDCHAR
STARTCHAR 57
ENCODING 57
SWIDTH 520 0
DWIDTH 9 0
BBX 9 24 0 0
BITMAP
0000
0000
0000
0000
0000
0000
3c00
7e00
e600
c300
c300
c300
e700
7f00
3b00
0300
c300
e600
7e00
3800
0000
0000
0000
0000
ENDCHAR
STARTCHAR 58
ENCODING 58
SWIDTH 520 0
DWIDTH 5 0
BBX 5 24 0 0
BITMAP
00
00
00
00
00
00
00
00
00
00
30
30
00
00
00
00
00
00
30
30
00
00
00
00
ENDCHAR
STARTCHAR 59
ENCODING 59
SWIDTH 520 0
DWIDTH 5 0
BBX 5 24 0 0
BITMAP
00
00
00
00
00
00
00
00
00
00
60
60
00
00
00
00
00
00
60
60
20
20
40
00
ENDCHAR
STARTCHAR 60
ENCODING 60
SWIDTH 520 0
DWIDTH 10 0
BBX 10 24 0 0
BITMAP
0000
0000
0000
0000
0000
0000
0000
0000
0000
0080
0380
1f00
7c00
6000
7c00
1f00
0780
0080
0000
0000
0000
0000
0000
0000
ENDCHAR
STARTCHAR 61
ENCODING 61
SWIDTH 520 0
DWIDTH 10 0
BBX 10 24 0 0
BITMAP
0000
0000
0000
0000
0000
0000
0000
0000
0000
0000
7f80
7f80
0000
0000
7f80
7f80
0000
0000
0000
0000
0000
0000
0000
0000
ENDCHAR
STARTCHAR 62
ENCODING 62
SWIDTH 520 0
DWIDTH 10 0
BBX 10 24 0 0
BITMAP
0000
0000
0000
0000
0000
0000
0000
0000
0000
4000
7000
3e00
0f80
0180
0f80
3e00
7800
4000
0000
0000
0000
0000
0000
0000
ENDCHAR
STARTCHAR 63
ENCODING 63
SWIDTH 520 0
DWIDTH 10 0
BBX 10 24 0 0
BITMAP
0000
0000
0000
0000
0000
0000
1e00
3f00
7380
6180
0180
0380
0300
0700
0e00
0c00
0c00
0000
0c00
0c00
0000
0000
0000
0000
ENDCHAR
STARTCHAR 64
ENCODING 64
SWIDTH 520 0
DWIDTH 16 0
BBX 16 24 0 0
BITMAP
0000
0000
0000
0000
0000
0000
07e0
1ff8
3c3c
300c
676e
6fe6
cce6
d846
d846
d8c6
d8cc
d9dc
eff8
6ef3
7006
3c1e
1ffc
07f0
ENDCHAR
STARTCHAR 65
ENCODING 65
SWIDTH 520 0
DWIDTH 9 0
BBX 9 24 0 0
BITMAP
0000
0000
0000
0000
0000
0000
3c00
6600
c300
c300
c300
c300
c300
ff00
c300
c300
c300
c300
c300
c300
0000
0000
0000
0000
ENDCHAR
STARTCHAR 66
ENCODING 66
SWIDTH 520 0
DWIDTH 9 0
BBX 9 24 0 0
BITMAP
0000
0000
0000
0000
0000
0000
fe00
c300
c300
c300
c300
c300
fe00
c300
c300
c300
c300
c300
c300
fe00
0000
0000
0000
0000
ENDCHAR
STARTCHAR 67
ENCODING 67
SWIDTH 520 0
DWIDTH 9 0
BBX 9 24 0 0
BITMAP
0000
0000
0000
0000
0000
0000
7e00
c300
c300
c300
c000
c000
c000
c000
c000
c000
c300
c300
c300
7e00
0000
0000
0000
0000
ENDCHAR
STARTCHAR 68
ENCODING 68
SWIDTH 520 0
DWIDTH 9 0
BBX 9 24 0 0
BITMAP
0000
0000
0000
0000
0000
0000
fc00
c600
c300
c300
c300
c300
c300
c300
c300
c300
c300
c300
c600
fc00
0000
0000
0000
0000
ENDCHAR
STARTCHAR 69
ENCODING 69
SWIDTH 520 0
DWIDTH 8 0
BBX 8 24 0 0
BITMAP
00
00
00
00
00
00
fe
c0
c0
c0
c0
c0
fc
c0
c0
c0
c0
c0
c0
fe
00
00
00
00
ENDCHAR
STARTCHAR 70
ENCODING 70
SWIDTH 520 0
DWIDTH 9 0
BBX 9 24 0 0
BITMAP
0000
0000
0000
0000
0000
0000
ff00
c000
c000
c000
c000
c000
fe00
c000
c000
c000
c000
c000
c000
c000
0000
0000
0000
0000
ENDCHAR
STARTCHAR 71
ENCODING 71
SWIDTH 520 0
DWIDTH 9 0
BBX 9 24 0 0
BITMAP
0000
0000
0000
0000
0000
0000
7e00
c300
c300
c000
c000
c000
c000
cf00
c300
c300
c300
c300
c300
7e00
0000
0000
0000
0000
ENDCHAR
STARTCHAR 72
ENCODING 72
SWIDTH 520 0
DWIDTH 9 0
BBX 9 24 0 0
BITMAP
0000
0000
0000
0000
0000
0000
c300
c300
c300
c300
c300
c300
ff00
c300
c300
c300
c300
c300
c300
c300
0000
0000
0000
0000
ENDCHAR
STARTCHAR 73
ENCODING 73
SWIDTH 520 0
DWIDTH 7 0
BBX 7 24 0 0
BITMAP
00
00
00
00
00
00
fc
30
30
30
30
30
30
30
30
30
30
30
30
fc
00
00
00
00
ENDCHAR
STARTCHAR 74
ENCODING 74
SWIDTH 520 0
DWIDTH 9 0
BBX 9 24 0 0
BITMAP
0000
0000
0000
0000
0000
0000
0f00
0600
0600
0600
0600
0600
0600
0600
0600
0600
0600
c600
c600
7c00
0000
0000
0000
0000
ENDCHAR
STARTCHAR 75
ENCODING 75
SWIDTH 520 0
DWIDTH 9 0
BBX 9 24 0 0
BITMAP
0000
0000
0000
0000
0000
0000
c300
c300
c600
c600
cc00
cc00
d800
d800
fc00
ec00
c600
c600
c300
c300
0000
0000
0000
0000
ENDCHAR
STARTCHAR 76
ENCODING 76
SWIDTH 520 0
DWIDTH 9 0
BBX 9 24 0 0
BITMAP
0000
0000
0000
0000
0000
0000
c000
c000
c000
c000
c000
c000
c000
c000
c000
c000
c000
c000
c000
ff00
0000
0000
0000
0000
ENDCHAR
STARTCHAR 77
ENCODING 77
SWIDTH 520 0
DWIDTH 10 0
BBX 10 24 0 0
BITMAP
0000
0000
0000
0000
0000
0000
c180
e380
f780
ff80
dd80
c980
c180
c180
c180
c180
c180
c180
c180
c180
0000
0000
0000
0000
ENDCHAR
STARTCHAR 78
ENCODING 78
SWIDTH 520 0
DWIDTH 9 0
BBX 9 24 0 0
BITMAP
0000
0000
0000
0000
0000
0000
c300
c300
e300
e300
d300
d300
d300
cb00
cb00
cb00
c700
c700
c300
c300
0000
0000
0000
0000
ENDCHAR
STARTCHAR 79
ENCODING 79
SWIDTH 520 0
DWIDTH 9 0
BBX 9 24 0 0
BITMAP
0000
0000
0000
0000
0000
0000
7e00
c300
c300
c300
c300
c300
c300
c300
c300
c300
c300
c300
c300
7e00
0000
0000
0000
0000
ENDCHAR
STARTCHAR 80
ENCODING 80
SWIDTH 520 0
DWIDTH 9 0
BBX 9 24 0 0
BITMAP
0000
0000
0000
0000
0000
0000
fe00
c300
c300
c300
c300
c300
c300
fe00
c000
c000
c000
c000
c000
c000
0000
0000
0000
0000
ENDCHAR
STARTCHAR 81
ENCODING 81
SWIDTH 520 0
DWIDTH 9 0
BBX 9 24 0 0
BITMAP
0000
0000
0000
0000
0000
0000
7e00
c300
c300
c300
c300
c300
c300
c300
c300
c300
c300
db00
cf00
7e00
0300
0000
0000
0000
ENDCHAR
STARTCHAR 82
ENCODING 82
SWIDTH 520 0
DWIDTH 9 0
BBX 9 24 0 0
BITMAP
0000
0000
0000
0000
0000
0000
fe00
c300
c300
c300
c300
c300
c300
fe00
c300
c300
c300
c300
c300
c300
0000
0000
0000
0000
ENDCHAR
STARTCHAR 83
ENCODING 83
SWIDTH 520 0
DWIDTH 9 0
BBX 9 24 0 0
BITMAP
0000
0000
0000
0000
0000
0000
7e00
c300
c300
c300
c000
e000
7800
1e00
0700
0300
c300
c300
c300
7e00
0000
0000
0000
0000
ENDCHAR
STARTCHAR 84
ENCODING 84
SWIDTH 520 0
DWIDTH 9 0
BBX 9 24 0 0
BITMAP
0000
0000
0000
0000
0000
0000
ff00
1800
1800
1800
1800
1800
1800
1800
1800
1800
1800
1800
1800
1800
0000
0000
0000
0000
ENDCHAR
STARTCHAR 85
ENCODING 85
SWIDTH 520 0
DWIDTH 9 0
BBX 9 24 0 0
BITMAP
0000
0000
0000
0000
0000
0000
c300
c300
c300
c300
c300
c300
c300
c300
c300
c300
c300
c300
c300
7e00
0000
0000
0000
0000
ENDCHAR
STARTCHAR 86
ENCODING 86
SWIDTH 520 0
DWIDTH 9 0
BBX 9 24 0 0
BITMAP
0000
0000
0000
0000
0000
0000
c300
c300
c300
c300
c300
c300
c300
c300
c300
6600
6600
6600
3c00
1800
0000
0000
0000
0000
ENDCHAR
STARTCHAR 87
ENCODING 87
SWIDTH 520 0
DWIDTH 11 0
BBX 11 24 0 0
BITMAP
0000
0000
0000
0000
0000
0000
c0c0
ccc0
ccc0
ccc0
ccc0
ccc0
ccc0
ccc0
ccc0
ccc0
ccc0
6d80
3300
3300
0000
0000
0000
0000
ENDCHAR
STARTCHAR 88
ENCODING 88
SWIDTH 520 0
DWIDTH 9 0
BBX 9 24 0 0
BITMAP
0000
0000
0000
0000
0000
0000
c300
c300
6600
6600
6600
3c00
1800
1800
3c00
3c00
6600
6600
c300
c300
0000
0000
0000
0000
ENDCHAR
STARTCHAR 89
ENCODING 89
SWIDTH 520 0
DWIDTH 9 0
BBX 9 24 0 0
BITMAP
0000
0000
0000
0000
0000
0000
c300
c300
c300
c300
6600
6600
3c00
1800
1800
1800
1800
1800
1800
1800
0000
0000
0000
0000
ENDCHAR
STARTCHAR 90
ENCODING 90
SWIDTH 520 0
DWIDTH 9 0
BBX 9 24 0 0
BITMAP
0000
0000
0000
0000
0000
0000
ff00
0300
0600
0600
0c00
0c00
1800
1800
3000
3000
6000
6000
c000
ff00
0000
0000
0000
0000
ENDCHAR
STARTCHAR 91
ENCODING 91
SWIDTH 520 0
DWIDTH 5 0
BBX 5 24 0 0
BITMAP
00
00
00
00
00
00
78
78
60
60
60
60
60
60
60
60
60
60
60
60
60
60
78
78
ENDCHAR
STARTCHAR 92
ENCODING 92
SWIDTH 520 0
DWIDTH 5 0
BBX 5 24 0 0
BITMAP
00
00
00
00
00
00
c0
c0
60
60
60
60
60
30
30
30
30
30
18
18
00
00
00
00
ENDCHAR
STARTCHAR 93
ENCODING 93
SWIDTH 520 0
DWIDTH 5 0
BBX 5 24 0 0
BITMAP
00
00
00
00
00
00
f0
f0
30
30
30
30
30
30
30
30
30
30
30
30
30
30
f0
f0
ENDCHAR
STARTCHAR 94
ENCODING 94
SWIDTH 520 0
DWIDTH 10 0
BBX 10 24 0 0
BITMAP
0000
0000
0000
0000
0000
0000
1c00
1c00
3600
3600
3600
3600
6300
6300
0000
0000
0000
0000
0000
0000
0000
0000
0000
0000
ENDCHAR
STARTCHAR 95
ENCODING 95
SWIDTH 520 0
DWIDTH 9 0
BBX 9 24 0 0
BITMAP
0000
0000
0000
0000
0000
0000
0000
0000
0000
0000
0000
0000
0000
0000
0000
0000
0000
0000
0000
0000
0000
0000
ff80
0000
ENDCHAR
STARTCHAR 96
ENCODING 96
SWIDTH 520 0
DWIDTH 5 0
BBX 5 24 0 0
BITMAP
00
00
00
00
00
00
60
30
00
00
00
00
00
00
00
00
00
00
00
00
00
00
00
00
ENDCHAR
STARTCHAR 97
ENCODING 97
SWIDTH 520 0
DWIDTH 9 0
BBX 9 24 0 0
BITMAP
0000
0000
0000
0000
0000
0000
0000
0000
0000
0000
3e00
6300
0300
0300
7f00
c300
c300
c300
c300
7f00
0000
0000
0000
0000
ENDCHAR
STARTCHAR 98
ENCODING 98
SWIDTH 520 0
DWIDTH 9 0
BBX 9 24 0 0
BITMAP
0000
0000
0000
0000
0000
0000
c000
c000
c000
c000
fc00
c600
c300
c300
c300
c300
c300
c300
c600
fc00
0000
0000
0000
0000
ENDCHAR
STARTCHAR 99
ENCODING 99
SWIDTH 520 0
DWIDTH 8 0
BBX 8 24 0 0
BITMAP
00
00
00
00
00
00
00
00
00
00
7c
c6
c6
c0
c0
c0
c0
c6
c6
7c
00
00
00
00
ENDCHAR
STARTCHAR 100
ENCODING 100
SWIDTH 520 0
DWIDTH 9 0
BBX 9 24 0 0
BITMAP
0000
0000
0000
0000
0000
0000
0300
0300
0300
0300
3f00
6300
c300
c300
c300
c300
c300
c300
6300
3f00
0000
0000
0000
0000
ENDCHAR
STARTCHAR 101
ENCODING 101
SWIDTH 520 0
DWIDTH 9 0
BBX 9 24 0 0
BITMAP
0000
0000
0000
0000
0000
0000
0000
0000
0000
0000
7e00
c300
c300
c300
ff00
c000
c000
c300
c300
7e00
0000
0000
0000
0000
ENDCHAR
STARTCHAR 102
ENCODING 102
SWIDTH 520 0
DWIDTH 8 0
BBX 8 24 0 0
BITMAP
00
00
00
00
00
00
1e
30
30
30
fe
30
30
30
30
30
30
30
30
30
00
00
00
00
ENDCHAR
STARTCHAR 103
ENCODING 103
SWIDTH 520 0
DWIDTH 9 0
BBX 9 24 0 0
BITMAP
0000
0000
0000
0000
0000
0000
0000
0000
0000
0000
3f00
6300
c300
c300
c300
c300
c300
6300
3f00
0300
c300
7e00
0000
0000
ENDCHAR
STARTCHAR 104
ENCODING 104
SWIDTH 520 0
DWIDTH 9 0
BBX 9 24 0 0
BITMAP
0000
0000
0000
0000
0000
0000
c000
c000
c000
c000
fe00
c300
c300
c300
c300
c300
c300
c300
c300
c300
0000
0000
0000
0000
ENDCHAR
STARTCHAR 105
ENCODING 105
SWIDTH 520 0
DWIDTH 5 0
BBX 5 24 0 0
BITMAP
00
00
00
00
00
00
30
30
00
00
f0
30
30
30
30
30
30
30
30
30
00
00
00
00
ENDCHAR
STARTCHAR 106
ENCODING 106
SWIDTH 520 0
DWIDTH 6 0
BBX 6 24 0 0
BITMAP
00
00
00
00
00
00
18
18
00
00
78
18
18
18
18
18
18
18
18
d8
70
00
00
00
ENDCHAR
STARTCHAR 107
ENCODING 107
SWIDTH 520 0
DWIDTH 9 0
BBX 9 24 0 0
BITMAP
0000
0000
0000
0000
0000
0000
c000
c000
c000
c000
c300
c600
cc00
d800
f800
ec00
cc00
c600
c600
c300
0000
0000
0000
0000
ENDCHAR
STARTCHAR 108
ENCODING 108
SWIDTH 520 0
DWIDTH 4 0
BBX 4 24 0 0
BITMAP
00
00
00
00
00
00
e0
60
60
60
60
60
60
60
60
60
60
60
60
60
00
00
00
00
ENDCHAR
STARTCHAR 109
ENCODING 109
SWIDTH 520 0
DWIDTH 11 0
BBX 11 24 0 0
BITMAP
0000
0000
0000
0000
0000
0000
0000
0000
0000
0000
f780
ccc0
ccc0
ccc0
ccc0
ccc0
ccc0
ccc0
ccc0
ccc0
0000
0000
0000
0000
ENDCHAR
STARTCHAR 110
ENCODING 110
SWIDTH 520 0
DWIDTH 9 0
BBX 9 24 0 0
BITMAP
0000
0000
0000
0000
0000
0000
0000
0000
0000
0000
fe00
c300
c300
c300
c300
c300
c300
c300
c300
c300
c300
0000
0000
0000
ENDCHAR
STARTCHAR 111
ENCODING 111
SWIDTH 520 0
DWIDTH 9 0
BBX 9 24 0 0
BITMAP
0000
0000
0000
0000
0000
0000
0000
0000
0000
0000
7e00
c300
c300
c300
c300
c300
c300
c300
c300
7e00
0000
0000
0000
0000
ENDCHAR
STARTCHAR 112
ENCODING 112
SWIDTH 520 0
DWIDTH 9 0
BBX 9 24 0 0
BITMAP
0000
0000
0000
0000
0000
0000
0000
0000
0000
0000
fc00
c600
c300
c300
c300
c300
c300
c600
fc00
c000
c000
c000
0000
0000
ENDCHAR
STARTCHAR 113
ENCODING 113
SWIDTH 520 0
DWIDTH 9 0
BBX 9 24 0 0
BITMAP
0000
0000
0000
0000
0000
0000
0000
0000
0000
0000
3f00
6300
c300
c300
c300
c300
c300
6300
3f00
0300
0300
0300
0000
0000
ENDCHAR
STARTCHAR 114
ENCODING 114
SWIDTH 520 0
DWIDTH 6 0
BBX 6 24 0 0
BITMAP
00
00
00
00
00
00
00
00
00
00
d8
f0
c0
c0
c0
c0
c0
c0
c0
c0
00
00
00
00
ENDCHAR
STARTCHAR 115
ENCODING 115
SWIDTH 520 0
DWIDTH 9 0
BBX 9 24 0 0
BITMAP
0000
0000
0000
0000
0000
0000
0000
0000
0000
0000
7e00
c300
c300
e000
7800
1e00
0700
c300
c300
7e00
0000
0000
0000
0000
ENDCHAR
STARTCHAR 116
ENCODING 116
SWIDTH 520 0
DWIDTH 7 0
BBX 7 24 0 0
BITMAP
00
00
00
00
00
00
00
30
30
30
fc
30
30
30
30
30
30
30
30
1c
00
00
00
00
ENDCHAR
STARTCHAR 117
ENCODING 117
SWIDTH 520 0
DWIDTH 9 0
BBX 9 24 0 0
BITMAP
0000
0000
0000
0000
0000
0000
0000
0000
0000
0000
c300
c300
c300
c300
c300
c300
c300
c300
c300
7f00
0000
0000
0000
0000
ENDCHAR
STARTCHAR 118
ENCODING 118
SWIDTH 520 0
DWIDTH 9 0
BBX 9 24 0 0
BITMAP
0000
0000
0000
0000
0000
0000
0000
0000
0000
0000
c300
c300
c300
c300
c300
6600
6600
6600
2400
3c00
1800
0000
0000
0000
ENDCHAR
STARTCHAR 119
ENCODING 119
SWIDTH 520 0
DWIDTH 11 0
BBX 11 24 0 0
BITMAP
0000
0000
0000
0000
0000
0000
0000
0000
0000
0000
ccc0
ccc0
ccc0
ccc0
ccc0
ccc0
ccc0
ccc0
7f80
3300
0000
0000
0000
0000
ENDCHAR
STARTCHAR 120
ENCODING 120
SWIDTH 520 0
DWIDTH 9 0
BBX 9 24 0 0
BITMAP
0000
0000
0000
0000
0000
0000
0000
0000
0000
0000
c300
c300
6600
3c00
1800
1800
3c00
6600
c300
c300
0000
0000
0000
0000
ENDCHAR
STARTCHAR 121
ENCODING 121
SWIDTH 520 0
DWIDTH 8 0
BBX 8 24 0 0
BITMAP
00
00
00
00
00
00
00
00
00
00
c6
c6
c6
c6
c6
c6
c6
7e
06
0c
78
00
00
00
ENDCHAR
STARTCHAR 122
ENCODING 122
SWIDTH 520 0
DWIDTH 9 0
BBX 9 24 0 0
BITMAP
0000
0000
0000
0000
0000
0000
0000
0000
0000
0000
ff00
0300
0700
0e00
1c00
3800
7000
e000
c000
ff00
0000
0000
0000
0000
ENDCHAR
STARTCHAR 123
ENCODING 123
SWIDTH 520 0
DWIDTH 6 0
BBX 6 24 0 0
BITMAP
00
00
00
00
00
00
1c
3c
30
30
30
30
30
70
e0
e0
70
30
30
30
30
30
3c
1c
ENDCHAR
STARTCHAR 124
ENCODING 124
SWIDTH 520 0
DWIDTH 5 0
BBX 5 24 0 0
BITMAP
00
00
00
00
00
00
60
60
60
60
60
60
60
60
60
60
60
60
60
60
60
60
60
60
ENDCHAR
STARTCHAR 125
ENCODING 125
SWIDTH 520 0
DWIDTH 6 0
BBX 6 24 0 0
BITMAP
00
00
00
00
00
00
e0
f0
30
30
30
30
30
38
1c
1c
38
30
30
30
30
30
f0
e0
ENDCHAR
STARTCHAR 126
ENCODING 126
SWIDTH 520 0
DWIDTH 10 0
BBX 10 24 0 0
BITMAP
0000
0000
0000
0000
0000
0000
0000
0000
0000
0000
0000
3880
7f80
4700
0000
0000
0000
0000
0000
0000
0000
0000
0000
0000
ENDCHAR
STARTCHAR 161
ENCODING 161
SWIDTH 520 0
DWIDTH 5 0
BBX 5 24 0 0
BITMAP
00
00
00
00
00
00
00
00
00
00
60
60
00
60
60
60
60
60
60
60
60
60
60
60
ENDCHAR
STARTCHAR 162
ENCODING 162
SWIDTH 520 0
DWIDTH 9 0
BBX 9 24 0 0
BITMAP
0000
0000
0000
0000
0000
0000
0100
0100
0200
0200
1e00
3f00
7580
6400
6400
6800
6980
7b80
3f00
1e00
1000
1000
2000
2000
ENDCHAR
STARTCHAR 163
ENCODING 163
SWIDTH 520 0
DWIDTH 9 0
BBX 9 24 0 0
BITMAP
0000
0000
0000
0000
0000
0000
1c00
3e00
6700
6300
6000
6000
fc00
fc00
3000
3000
6000
f880
ff80
4700
0000
0000
0000
0000
ENDCHAR
STARTCHAR 164
ENCODING 164
SWIDTH 520 0
DWIDTH 9 0
BBX 9 24 0 0
BITMAP
0000
0000
0000
0000
0000
0000
0000
0000
4100
ff80
7f00
7700
6300
6300
7700
7f00
ff80
4100
0000
0000
0000
0000
0000
0000
ENDCHAR
STARTCHAR 165
ENCODING 165
SWIDTH 520 0
DWIDTH 8 0
BBX 8 24 0 0
BITMAP
00
00
00
00
00
00
c3
66
66
66
3c
3c
ff
ff
18
ff
ff
18
18
18
00
00
00
00
ENDCHAR
STARTCHAR 166
ENCODING 166
SWIDTH 520 0
DWIDTH 5 0
BBX 5 24 0 0
BITMAP
00
00
00
00
00
00
60
60
60
60
60
60
60
60
00
00
60
60
60
60
60
60
60
60
ENDCHAR
STARTCHAR 167
ENCODING 167
SWIDTH 520 0
DWIDTH 9 0
BBX 9 24 0 0
BITMAP
0000
0000
0000
0000
0000
0000
3c00
7e00
6600
6000
3000
7800
ec00
c600
c300
c300
6300
3700
1e00
0c00
0600
6600
7e00
3c00
ENDCHAR
STARTCHAR 168
ENCODING 168
SWIDTH 520 0
DWIDTH 5 0
BBX 5 24 0 0
BITMAP
00
00
00
00
00
00
d8
d8
00
00
00
00
00
00
00
00
00
00
00
00
00
00
00
00
ENDCHAR
STARTCHAR 169
ENCODING 169
SWIDTH 520 0
DWIDTH 12 0
BBX 12 24 0 0
BITMAP
0000
0000
0000
0000
0000
0000
0f00
30c0
6060
4720
8890
9010
9010
9010
9090
8990
4720
6060
30c0
0f00
0000
0000
0000
0000
ENDCHAR
STARTCHAR 170
ENCODING 170
SWIDTH 520 0
DWIDTH 6 0
BBX 6 24 0 0
BITMAP
00
00
00
00
00
00
70
f8
18
78
d8
f8
78
00
00
00
00
00
00
00
00
00
00
00
ENDCHAR
STARTCHAR 171
ENCODING 171
SWIDTH 520 0
DWIDTH 9 0
BBX 9 24 0 0
BITMAP
0000
0000
0000
0000
0000
0000
0000
0000
0000
0000
1b00
1200
3600
2400
6c00
2400
3600
1200
1b00
0000
0000
0000
0000
0000
ENDCHAR
STARTCHAR 172
ENCODING 172
SWIDTH 520 0
DWIDTH 10 0
BBX 10 24 0 0
BITMAP
0000
0000
0000
0000
0000
0000
0000
0000
0000
0000
7f80
7f80
0180
0180
0180
0180
0000
0000
0000
0000
0000
0000
0000
0000
ENDCHAR
STARTCHAR 173
ENCODING 173
SWIDTH 520 0
DWIDTH 5 0
BBX 5 24 0 0
BITMAP
00
00
00
00
00
00
00
00
00
00
00
00
00
00
f0
f0
00
00
00
00
00
00
00
00
ENDCHAR
STARTCHAR 174
ENCODING 174
SWIDTH 520 0
DWIDTH 12 0
BBX 12 24 0 0
BITMAP
0000
0000
0000
0000
0000
0000
0f00
30c0
6060
5f20
9090
9090
9090
9f10
9310
9110
50a0
6060
30c0
0f00
0000
0000
0000
0000
ENDCHAR
STARTCHAR 175
ENCODING 175
SWIDTH 520 0
DWIDTH 10 0
BBX 10 24 0 0
BITMAP
0000
0000
0000
ffc0
0000
0000
0000
0000
0000
0000
0000
0000
0000
0000
0000
0000
0000
0000
0000
0000
0000
0000
0000
0000
ENDCHAR
STARTCHAR 176
ENCODING 176
SWIDTH 520 0
DWIDTH 8 0
BBX 8 24 0 0
BITMAP
00
00
00
00
00
00
3c
7e
66
66
7e
3c
00
00
00
00
00
00
00
00
00
00
00
00
ENDCHAR
STARTCHAR 177
ENCODING 177
SWIDTH 520 0
DWIDTH 11 0
BBX 11 24 0 0
BITMAP
0000
0000
0000
0000
0000
0000
0000
0c00
0c00
0c00
0c00
ffc0
ffc0
0c00
0c00
0c00
0c00
0000
ffc0
ffc0
0000
0000
0000
0000
ENDCHAR
STARTCHAR 178
ENCODING 178
SWIDTH 520 0
DWIDTH 6 0
BBX 6 24 0 0
BITMAP
00
00
00
00
00
00
70
d8
18
38
70
e0
f8
00
00
00
00
00
00
00
00
00
00
00
ENDCHAR
STARTCHAR 179
ENCODING 179
SWIDTH 520 0
DWIDTH 6 0
BBX 6 24 0 0
BITMAP
00
00
00
00
00
00
70
d8
18
30
18
d8
70
00
00
00
00
00
00
00
00
00
00
00
ENDCHAR
STARTCHAR 180
ENCODING 180
SWIDTH 520 0
DWIDTH 5 0
BBX 5 24 0 0
BITMAP
00
00
00
00
00
00
30
60
00
00
00
00
00
00
00
00
00
00
00
00
00
00
00
00
ENDCHAR
STARTCHAR 181
ENCODING 181
SWIDTH 520 0
DWIDTH 12 0
BBX 12 24 0 0
BITMAP
0000
0000
0000
0000
0000
0000
0000
0000
0000
0000
6060
6060
6060
6060
6060
6060
6060
70e0
7fe0
6f60
6000
6000
6000
6000
ENDCHAR
STARTCHAR 182
ENCODING 182
SWIDTH 520 0
DWIDTH 9 0
BBX 9 24 0 0
BITMAP
0000
0000
0000
0000
0000
0000
3f80
7f80
fb00
fb00
fb00
fb00
7b00
3b00
1b00
1b00
1b00
1b00
1b00
1b00
1b00
1b00
1b00
1b00
ENDCHAR
STARTCHAR 183
ENCODING 183
SWIDTH 520 0
DWIDTH 5 0
BBX 5 24 0 0
BITMAP
00
00
00
00
00
00
00
00
00
00
00
00
30
30
00
00
00
00
00
00
00
00
00
00
ENDCHAR
STARTCHAR 184
ENCODING 184
SWIDTH 520 0
DWIDTH 5 0
BBX 5 24 0 0
BITMAP
00
00
00
00
00
00
00
00
00
00
00
00
00
00
00
00
00
00
00
00
70
30
30
e0
ENDCHAR
STARTCHAR 185
ENCODING 185
SWIDTH 520 0
DWIDTH 5 0
BBX 5 24 0 0
BITMAP
00
00
00
00
00
00
30
f0
b0
30
30
30
30
00
00
00
00
00
00
00
00
00
00
00
ENDCHAR
STARTCHAR 186
ENCODING 186
SWIDTH 520 0
DWIDTH 6 0
BBX 6 24 0 0
BITMAP
00
00
00
00
00
00
78
fc
cc
cc
cc
fc
78
00
00
00
00
00
00
00
00
00
00
00
ENDCHAR
STARTCHAR 187
ENCODING 187
SWIDTH 520 0
DWIDTH 9 0
BBX 9 24 0 0
BITMAP
0000
0000
0000
0000
0000
0000
0000
0000
0000
0000
6c00
2400
3600
1200
1b00
1200
3600
2400
6c00
0000
0000
0000
0000
0000
ENDCHAR
STARTCHAR 188
ENCODING 188
SWIDTH 520 0
DWIDTH 14 0
BBX 14 24 0 0
BITMAP
0000
0000
0000
0000
0000
0000
3020
f040
b040
3080
3080
3100
3100
0230
0230
0470
0470
08b0
08f8
1030
0000
0000
0000
0000
ENDCHAR
STARTCHAR 189
ENCODING 189
SWIDTH 520 0
DWIDTH 14 0
BBX 14 24 0 0
BITMAP
0000
0000
0000
0000
0000
0000
3020
f040
b040
3080
3080
3100
3100
0270
02d8
0418
0438
0870
08e0
10f8
0000
0000
0000
0000
ENDCHAR
STARTCHAR 190
ENCODING 190
SWIDTH 520 0
DWIDTH 14 0
BBX 14 24 0 0
BITMAP
0000
0000
0000
0000
0000
0000
7010
d820
1820
3040
1840
d880
7080
0130
0130
0270
0270
04b0
04f8
0830
0000
0000
0000
0000
ENDCHAR
STARTCHAR 191
ENCODING 191
SWIDTH 520 0
DWIDTH 10 0
BBX 10 24 0 0
BITMAP
0000
0000
0000
0000
0000
0000
0000
0000
0000
0000
0c00
0c00
0000
0c00
0c00
1c00
3800
3000
7000
6000
6180
7380
3f00
1e00
ENDCHAR
STARTCHAR 192
ENCODING 192
SWIDTH 520 0
DWIDTH 11 0
BBX 11 24 0 0
BITMAP
0000
0000
0000
0600
0300
0000
0e00
0e00
0e00
1b00
1b00
1b00
3180
3180
3f80
7fc0
60c0
60c0
e0e0
c060
0000
0000
0000
0000
ENDCHAR
STARTCHAR 193
ENCODING 193
SWIDTH 520 0
DWIDTH 11 0
BBX 11 24 0 0
BITMAP
0000
0000
0000
0c00
1800
0000
0e00
0e00
0e00
1b00
1b00
1b00
3180
3180
3f80
7fc0
60c0
60c0
e0e0
c060
0000
0000
0000
0000
ENDCHAR
STARTCHAR 194
ENCODING 194
SWIDTH 520 0
DWIDTH 11 0
BBX 11 24 0 0
BITMAP
0000
0000
0e00
0e00
1b00
0000
0e00
0e00
0e00
1b00
1b00
1b00
3180
3180
3f80
7fc0
60c0
60c0
e0e0
c060
0000
0000
0000
0000
ENDCHAR
STARTCHAR 195
ENCODING 195
SWIDTH 520 0
DWIDTH 11 0
BBX 11 24 0 0
BITMAP
0000
0000
0900
1f00
1300
0000
0e00
0e00
0e00
1b00
1b00
1b00
3180
3180
3f80
7fc0
60c0
60c0
e0e0
c060
0000
0000
0000
0000
ENDCHAR
STARTCHAR 196
ENCODING 196
SWIDTH 520 0
DWIDTH 11 0
BBX 11 24 0 0
BITMAP
0000
0000
0000
1b00
1b00
0000
0e00
0e00
0e00
1b00
1b00
1b00
3180
3180
3f80
7fc0
60c0
60c0
e0e0
c060
0000
0000
0000
0000
ENDCHAR
STARTCHAR 197
ENCODING 197
SWIDTH 520 0
DWIDTH 11 0
BBX 11 24 0 0
BITMAP
0000
0400
0a00
0a00
0400
0000
0e00
0e00
0e00
1b00
1b00
1b00
3180
3180
3f80
7fc0
60c0
60c0
e0e0
c060
0000
0000
0000
0000
ENDCHAR
STARTCHAR 198
ENCODING 198
SWIDTH 520 0
DWIDTH 16 0
BBX 16 24 0 0
BITMAP
0000
0000
0000
0000
0000
0000
0ffe
0ffe
0d80
1d80
1980
19fe
39fe
3f80
3f80
7180
6180
6180
e1fe
c1fe
0000
0000
0000
0000
ENDCHAR
STARTCHAR 199
ENCODING 199
SWIDTH 520 0
DWIDTH 12 0
BBX 12 24 0 0
BITMAP
0000
0000
0000
0000
0000
0000
0f80
1fc0
38e0
3040
6000
6000
6000
6000
6000
6040
30e0
38c0
1fc0
0f80
0700
0300
0300
0e00
ENDCHAR
STARTCHAR 200
ENCODING 200
SWIDTH 520 0
DWIDTH 11 0
BBX 11 24 0 0
BITMAP
0000
0000
0000
0600
0300
0000
7fc0
7fc0
6000
6000
6000
6000
7fc0
7fc0
6000
6000
6000
6000
7fc0
7fc0
0000
0000
0000
0000
ENDCHAR
STARTCHAR 201
ENCODING 201
SWIDTH 520 0
DWIDTH 11 0
BBX 11 24 0 0
BITMAP
0000
0000
0000
0c00
1800
0000
7fc0
7fc0
6000
6000
6000
6000
7fc0
7fc0
6000
6000
6000
6000
7fc0
7fc0
0000
0000
0000
0000
ENDCHAR
STARTCHAR 202
ENCODING 202
SWIDTH 520 0
DWIDTH 11 0
BBX 11 24 0 0
BITMAP
0000
0000
0e00
0e00
1b00
0000
7fc0
7fc0
6000
6000
6000
6000
7fc0
7fc0
6000
6000
6000
6000
7fc0
7fc0
0000
0000
0000
0000
ENDCHAR
STARTCHAR 203
ENCODING 203
SWIDTH 520 0
DWIDTH 11 0
BBX 11 24 0 0
BITMAP
0000
0000
0000
1b00
1b00
0000
7fc0
7fc0
6000
6000
6000
6000
7fc0
7fc0
6000
6000
6000
6000
7fc0
7fc0
0000
0000
0000
0000
ENDCHAR
STARTCHAR 204
ENCODING 204
SWIDTH 520 0
DWIDTH 4 0
BBX 4 24 0 0
BITMAP
00
00
00
c0
60
00
60
60
60
60
60
60
60
60
60
60
60
60
60
60
00
00
00
00
ENDCHAR
STARTCHAR 205
ENCODING 205
SWIDTH 520 0
DWIDTH 4 0
BBX 4 24 0 0
BITMAP
00
00
00
60
c0
00
60
60
60
60
60
60
60
60
60
60
60
60
60
60
00
00
00
00
ENDCHAR
STARTCHAR 206
ENCODING 206
SWIDTH 520 0
DWIDTH 4 0
BBX 4 24 0 0
BITMAP
00
00
e0
e0
b0
00
60
60
60
60
60
60
60
60
60
60
60
60
60
60
00
00
00
00
ENDCHAR
STARTCHAR 207
ENCODING 207
SWIDTH 520 0
DWIDTH 4 0
BBX 4 24 0 0
BITMAP
00
00
00
b0
b0
00
60
60
60
60
60
60
60
60
60
60
60
60
60
60
00
00
00
00
ENDCHAR
STARTCHAR 208
ENCODING 208
SWIDTH 520 0
DWIDTH 12 0
BBX 12 24 0 0
BITMAP
0000
0000
0000
0000
0000
0000
7f00
7f80
61c0
60e0
6060
6060
fc60
fc60
6060
6060
60e0
61c0
7f80
7f00
0000
0000
0000
0000
ENDCHAR
STARTCHAR 209
ENCODING 209
SWIDTH 520 0
DWIDTH 12 0
BBX 12 24 0 0
BITMAP
0000
0000
0480
0f80
0980
0000
6060
7060
7860
7860
7c60
6c60
6e60
6660
6360
63e0
61e0
61e0
60e0
60e0
0000
0000
0000
0000
ENDCHAR
STARTCHAR 210
ENCODING 210
SWIDTH 520 0
DWIDTH 13 0
BBX 13 24 0 0
BITMAP
0000
0000
0000
0300
0180
0000
0f80
1fc0
38e0
3060
6030
6030
6030
6030
6030
6030
3060
38e0
1fc0
0f80
0000
0000
0000
0000
ENDCHAR
STARTCHAR 211
ENCODING 211
SWIDTH 520 0
DWIDTH 13 0
BBX 13 24 0 0
BITMAP
0000
0000
0000
0600
0c00
0000
0f80
1fc0
38e0
3060
6030
6030
6030
6030
6030
6030
3060
38e0
1fc0
0f80
0000
0000
0000
0000
ENDCHAR
STARTCHAR 212
ENCODING 212
SWIDTH 520 0
DWIDTH 13 0
BBX 13 24 0 0
BITMAP
0000
0000
0700
0700
0d80
0000
0f80
1fc0
38e0
3060
6030
6030
6030
6030
6030
6030
3060
38e0
1fc0
0f80
0000
0000
0000
0000
ENDCHAR
STARTCHAR 213
ENCODING 213
SWIDTH 520 0
DWIDTH 13 0
BBX 13 24 0 0
BITMAP
0000
0000
0480
0f80
0980
0000
0f80
1fc0
38e0
3060
6030
6030
6030
6030
6030
6030
3060
38e0
1fc0
0f80
0000
0000
0000
0000
ENDCHAR
STARTCHAR 214
ENCODING 214
SWIDTH 520 0
DWIDTH 13 0
BBX 13 24 0 0
BITMAP
0000
0000
0000
0d80
0d80
0000
0f80
1fc0
38e0
3060
6030
6030
6030
6030
6030
6030
3060
38e0
1fc0
0f80
0000
0000
0000
0000
ENDCHAR
STARTCHAR 215
ENCODING 215
SWIDTH 520 0
DWIDTH 10 0
BBX 10 24 0 0
BITMAP
0000
0000
0000
0000
0000
0000
0000
0000
0000
6180
7380
3f00
1e00
1e00
3f00
7380
6180
0000
0000
0000
0000
0000
0000
0000
ENDCHAR
STARTCHAR 216
ENCODING 216
SWIDTH 520 0
DWIDTH 13 0
BBX 13 24 0 0
BITMAP
0000
0000
0000
0000
0000
0000
0f90
1ff0
38e0
30f0
60b0
61b0
6330
6630
6c30
6830
7860
38e0
7fc0
4f80
0000
0000
0000
0000
ENDCHAR
STARTCHAR 217
ENCODING 217
SWIDTH 520 0
DWIDTH 12 0
BBX 12 24 0 0
BITMAP
0000
0000
0000
0600
0300
0000
6060
6060
6060
6060
6060
6060
6060
6060
6060
6060
6060
70e0
3fc0
1f80
0000
0000
0000
0000
ENDCHAR
STARTCHAR 218
ENCODING 218
SWIDTH 520 0
DWIDTH 12 0
BBX 12 24 0 0
BITMAP
0000
0000
0000
0600
0c00
0000
6060
6060
6060
6060
6060
6060
6060
6060
6060
6060
6060
70e0
3fc0
1f80
0000
0000
0000
0000
ENDCHAR
STARTCHAR 219
ENCODING 219
SWIDTH 520 0
DWIDTH 12 0
BBX 12 24 0 0
BITMAP
0000
0000
0700
0700
0d80
0000
6060
6060
6060
6060
6060
6060
6060
6060
6060
6060
6060
70e0
3fc0
1f80
0000
0000
0000
0000
ENDCHAR
STARTCHAR 220
ENCODING 220
SWIDTH 520 0
DWIDTH 12 0
BBX 12 24 0 0
BITMAP
0000
0000
0000
0d80
0d80
0000
6060
6060
6060
6060
6060
6060
6060
6060
6060
6060
6060
70e0
3fc0
1f80
0000
0000
0000
0000
ENDCHAR
STARTCHAR 221
ENCODING 221
SWIDTH 520 0
DWIDTH 10 0
BBX 10 24 0 0
BITMAP
0000
0000
0000
0c00
1800
0000
c0c0
6180
6180
3300
3300
1e00
1e00
0c00
0c00
0c00
0c00
0c00
0c00
0c00
0000
0000
0000
0000
ENDCHAR
STARTCHAR 222
ENCODING 222
SWIDTH 520 0
DWIDTH 11 0
BBX 11 24 0 0
BITMAP
0000
0000
0000
0000
0000
0000
6000
6000
6000
7f00
7f80
61c0
60c0
60c0
61c0
7f80
7f00
6000
6000
6000
0000
0000
0000
0000
ENDCHAR
STARTCHAR 223
ENCODING 223
SWIDTH 520 0
DWIDTH 10 0
BBX 10 24 0 0
BITMAP
0000
0000
0000
0000
0000
0000
1e00
3f00
6300
6300
6300
6600
6600
6700
6300
6380
6180
6580
6f80
6700
0000
0000
0000
0000
ENDCHAR
STARTCHAR 224
ENCODING 224
SWIDTH 520 0
DWIDTH 9 0
BBX 9 24 0 0
BITMAP
0000
0000
0000
0000
0000
0000
0000
1800
0c00
0000
3e00
3f00
6300
0300
0f00
3f00
7300
6300
7f00
3b00
0000
0000
0000
0000
ENDCHAR
STARTCHAR 225
ENCODING 225
SWIDTH 520 0
DWIDTH 9 0
BBX 9 24 0 0
BITMAP
0000
0000
0000
0000
0000
0000
0000
1800
3000
0000
3e00
3f00
6300
0300
0f00
3f00
7300
6300
7f00
3b00
0000
0000
0000
0000
ENDCHAR
STARTCHAR 226
ENCODING 226
SWIDTH 520 0
DWIDTH 9 0
BBX 9 24 0 0
BITMAP
0000
0000
0000
0000
0000
0000
1c00
1c00
3600
0000
3e00
3f00
6300
0300
0f00
3f00
7300
6300
7f00
3b00
0000
0000
0000
0000
ENDCHAR
STARTCHAR 227
ENCODING 227
SWIDTH 520 0
DWIDTH 9 0
BBX 9 24 0 0
BITMAP
0000
0000
0000
0000
0000
0000
1200
3e00
2600
0000
3e00
3f00
6300
0300
0f00
3f00
7300
6300
7f00
3b00
0000
0000
0000
0000
ENDCHAR
STARTCHAR 228
ENCODING 228
SWIDTH 520 0
DWIDTH 9 0
BBX 9 24 0 0
BITMAP
0000
0000
0000
0000
0000
0000
0000
3600
3600
0000
3e00
3f00
6300
0300
0f00
3f00
7300
6300
7f00
3b00
0000
0000
0000
0000
ENDCHAR
STARTCHAR 229
ENCODING 229
SWIDTH 520 0
DWIDTH 9 0
BBX 9 24 0 0
BITMAP
0000
0000
0000
0000
0000
0800
1400
1400
0800
0000
3e00
3f00
6300
0300
0f00
3f00
7300
6300
7f00
3b00
0000
0000
0000
0000
ENDCHAR
STARTCHAR 230
ENCODING 230
SWIDTH 520 0
DWIDTH 14 0
BBX 14 24 0 0
BITMAP
0000
0000
0000
0000
0000
0000
0000
0000
0000
0000
3ee0
3ff0
6318
0318
0ff8
3ff8
7300
6398
7ff0
3ce0
0000
0000
0000
0000
ENDCHAR
STARTCHAR 231
ENCODING 231
SWIDTH 520 0
DWIDTH 9 0
BBX 9 24 0 0
BITMAP
0000
0000
0000
0000
0000
0000
0000
0000
0000
0000
1c00
3e00
7700
6300
6000
6000
6300
7700
3e00
1c00
1c00
0c00
0c00
3800
ENDCHAR
STARTCHAR 232
ENCODING 232
SWIDTH 520 0
DWIDTH 9 0
BBX 9 24 0 0
BITMAP
0000
0000
0000
0000
0000
0000
0000
0c00
0600
0000
1c00
3e00
6300
6300
7f00
7f00
6000
6300
3e00
1c00
0000
0000
0000
0000
ENDCHAR
STARTCHAR 233
ENCODING 233
SWIDTH 520 0
DWIDTH 9 0
BBX 9 24 0 0
BITMAP
0000
0000
0000
0000
0000
0000
0000
1800
3000
0000
1c00
3e00
6300
6300
7f00
7f00
6000
6300
3e00
1c00
0000
0000
0000
0000
ENDCHAR
STARTCHAR 234
ENCODING 234
SWIDTH 520 0
DWIDTH 9 0
BBX 9 24 0 0
BITMAP
0000
0000
0000
0000
0000
0000
1c00
1c00
3600
0000
1c00
3e00
6300
6300
7f00
7f00
6000
6300
3e00
1c00
0000
0000
0000
0000
ENDCHAR
STARTCHAR 235
ENCODING 235
SWIDTH 520 0
DWIDTH 9 0
BBX 9 24 0 0
BITMAP
0000
0000
0000
0000
0000
0000
0000
3600
3600
0000
1c00
3e00
6300
6300
7f00
7f00
6000
6300
3e00
1c00
0000
0000
0000
0000
ENDCHAR
STARTCHAR 236
ENCODING 236
SWIDTH 520 0
DWIDTH 4 0
BBX 4 24 0 0
BITMAP
00
00
00
00
00
00
00
c0
60
00
60
60
60
60
60
60
60
60
60
60
00
00
00
00
ENDCHAR
STARTCHAR 237
ENCODING 237
SWIDTH 520 0
DWIDTH 4 0
BBX 4 24 0 0
BITMAP
00
00
00
00
00
00
00
60
c0
00
60
60
60
60
60
60
60
60
60
60
00
00
00
00
ENDCHAR
STARTCHAR 238
ENCODING 238
SWIDTH 520 0
DWIDTH 4 0
BBX 4 24 0 0
BITMAP
00
00
00
00
00
00
e0
e0
b0
00
60
60
60
60
60
60
60
60
60
60
00
00
00
00
ENDCHAR
STARTCHAR 239
ENCODING 239
SWIDTH 520 0
DWIDTH 4 0
BBX 4 24 0 0
BITMAP
00
00
00
00
00
00
00
b0
b0
00
60
60
60
60
60
60
60
60
60
60
00
00
00
00
ENDCHAR
STARTCHAR 240
ENCODING 240
SWIDTH 520 0
DWIDTH 10 0
BBX 10 24 0 0
BITMAP
0000
0000
0000
0000
0000
0000
0e00
0e00
0e00
1300
1f00
3f80
7380
6180
6180
6180
6180
7300
3f00
1e00
0000
0000
0000
0000
ENDCHAR
STARTCHAR 241
ENCODING 241
SWIDTH 520 0
DWIDTH 10 0
BBX 10 24 0 0
BITMAP
0000
0000
0000
0000
0000
0000
0900
1f00
1300
0000
6f00
7f80
7180
6180
6180
6180
6180
6180
6180
6180
0000
0000
0000
0000
ENDCHAR
STARTCHAR 242
ENCODING 242
SWIDTH 520 0
DWIDTH 10 0
BBX 10 24 0 0
BITMAP
0000
0000
0000
0000
0000
0000
0000
0c00
0600
0000
1e00
3f00
7380
6180
6180
6180
6180
7380
3f00
1e00
0000
0000
0000
0000
ENDCHAR
STARTCHAR 243
ENCODING 243
SWIDTH 520 0
DWIDTH 10 0
BBX 10 24 0 0
BITMAP
0000
0000
0000
0000
0000
0000
0000
0c00
1800
0000
1e00
3f00
7380
6180
6180
6180
6180
7380
3f00
1e00
0000
0000
0000
0000
ENDCHAR
STARTCHAR 244
ENCODING 244
SWIDTH 520 0
DWIDTH 10 0
BBX 10 24 0 0
BITMAP
0000
0000
0000
0000
0000
0000
0e00
0e00
1b00
0000
1e00
3f00
7380
6180
6180
6180
6180
7380
3f00
1e00
0000
0000
0000
0000
ENDCHAR
STARTCHAR 245
ENCODING 245
SWIDTH 520 0
DWIDTH 10 0
BBX 10 24 0 0
BITMAP
0000
0000
0000
0000
0000
0000
0900
1f00
1300
0000
1e00
3f00
7380
6180
6180
6180
6180
7380
3f00
1e00
0000
0000
0000
0000
ENDCHAR
STARTCHAR 246
ENCODING 246
SWIDTH 520 0
DWIDTH 10 0
BBX 10 24 0 0
BITMAP
0000
0000
0000
0000
0000
0000
0000
1b00
1b00
0000
1e00
3f00
7380
6180
6180
6180
6180
7380
3f00
1e00
0000
0000
0000
0000
ENDCHAR
STARTCHAR 247
ENCODING 247
SWIDTH 520 0
DWIDTH 11 0
BBX 11 24 0 0
BITMAP
0000
0000
0000
0000
0000
0000
0000
0000
0000
0000
0c00
0c00
0000
ffc0
ffc0
0000
0c00
0c00
0000
0000
0000
0000
0000
0000
ENDCHAR
STARTCHAR 248
ENCODING 248
SWIDTH 520 0
DWIDTH 10 0
BBX 10 24 0 0
BITMAP
0000
0000
0000
0000
0000
0000
0000
0000
0000
0000
1e80
3f00
7380
6380
6580
6980
7180
7300
3f00
5e00
0000
0000
0000
0000
ENDCHAR
STARTCHAR 249
ENCODING 249
SWIDTH 520 0
DWIDTH 10 0
BBX 10 24 0 0
BITMAP
0000
0000
0000
0000
0000
0000
0000
0c00
0600
0000
6180
6180
6180
6180
6180
6180
6180
6380
7f80
3d80
0000
0000
0000
0000
ENDCHAR
STARTCHAR 250
ENCODING 250
SWIDTH 520 0
DWIDTH 10 0
BBX 10 24 0 0
BITMAP
0000
0000
0000
0000
0000
0000
0000
0c00
1800
0000
6180
6180
6180
6180
6180
6180
6180
6380
7f80
3d80
0000
0000
0000
0000
ENDCHAR
STARTCHAR 251
ENCODING 251
SWIDTH 520 0
DWIDTH 10 0
BBX 10 24 0 0
BITMAP
0000
0000
0000
0000
0000
0000
0e00
0e00
1b00
0000
6180
6180
6180
6180
6180
6180
6180
6380
7f80
3d80
0000
0000
0000
0000
ENDCHAR
STARTCHAR 252
ENCODING 252
SWIDTH 520 0
DWIDTH 10 0
BBX 10 24 0 0
BITMAP
0000
0000
0000
0000
0000
0000
0000
1b00
1b00
0000
6180
6180
6180
6180
6180
6180
6180
6380
7f80
3d80
0000
0000
0000
0000
ENDCHAR
STARTCHAR 253
ENCODING 253
SWIDTH 520 0
DWIDTH 9 0
BBX 9 24 0 0
BITMAP
0000
0000
0000
0000
0000
0000
0000
1800
3000
0000
c180
e380
6300
6300
7700
3600
3600
3e00
1c00
1c00
1c00
1800
7800
7000
ENDCHAR
STARTCHAR 254
ENCODING 254
SWIDTH 520 0
DWIDTH 10 0
BBX 10 24 0 0
BITMAP
0000
0000
0000
0000
0000
0000
6000
6000
6000
6000
6e00
7f00
7380
6180
6180
6180
6180
7380
7f00
6e00
6000
6000
6000
6000
ENDCHAR
STARTCHAR 255
ENCODING 255
SWIDTH 520 0
DWIDTH 9 0
BBX 9 24 0 0
BITMAP
0000
0000
0000
0000
0000
0000
0000
3600
3600
0000
c180
e380
6300
6300
7700
3600
3600
3e00
1c00
1c00
1c00
1800
7800
7000
ENDCHAR
STARTCHAR 256
ENCODING 256
SWIDTH 520 0
DWIDTH 11 0
BBX 11 24 0 0
BITMAP
0000
0000
0000
1f00
1f00
0000
0e00
0e00
0e00
1b00
1b00
1b00
3180
3180
3f80
7fc0
60c0
60c0
e0e0
c060
0000
0000
0000
0000
ENDCHAR
STARTCHAR 257
ENCODING 257
SWIDTH 520 0
DWIDTH 9 0
BBX 9 24 0 0
BITMAP
0000
0000
0000
0000
0000
0000
0000
3e00
3e00
0000
3e00
3f00
6300
0300
0f00
3f00
7300
6300
7f00
3b00
0000
0000
0000
0000
ENDCHAR
STARTCHAR 258
ENCODING 258
SWIDTH 520 0
DWIDTH 11 0
BBX 11 24 0 0
BITMAP
0000
0000
1100
1f00
0e00
0000
0e00
0e00
0e00
1b00
1b00
1b00
3180
3180
3f80
7fc0
60c0
60c0
e0e0
c060
0000
0000
0000
0000
ENDCHAR
STARTCHAR 259
ENCODING 259
SWIDTH 520 0
DWIDTH 9 0
BBX 9 24 0 0
BITMAP
0000
0000
0000
0000
0000
0000
2200
3e00
1c00
0000
3e00
3f00
6300
0300
0f00
3f00
7300
6300
7f00
3b00
0000
0000
0000
0000
ENDCHAR
STARTCHAR 260
ENCODING 260
SWIDTH 520 0
DWIDTH 11 0
BBX 11 24 0 0
BITMAP
0000
0000
0000
0000
0000
0000
0e00
0e00
0e00
1b00
1b00
1b00
3180
3180
3f80
7fc0
60c0
60c0
e0e0
c060
0040
0040
0060
0060
ENDCHAR
STARTCHAR 261
ENCODING 261
SWIDTH 520 0
DWIDTH 9 0
BBX 9 24 0 0
BITMAP
0000
0000
0000
0000
0000
0000
0000
0000
0000
0000
3e00
3f00
6300
0300
0f00
3f00
7300
6300
7f00
3b00
0200
0200
0380
0380
ENDCHAR
STARTCHAR 262
ENCODING 262
SWIDTH 520 0
DWIDTH 12 0
BBX 12 24 0 0
BITMAP
0000
0000
0000
0600
0c00
0000
0f80
1fc0
38e0
3040
6000
6000
6000
6000
6000
6040
30e0
38c0
1fc0
0f80
0000
0000
0000
0000
ENDCHAR
STARTCHAR 263
ENCODING 263
SWIDTH 520 0
DWIDTH 9 0
BBX 9 24 0 0
BITMAP
0000
0000
0000
0000
0000
0000
0000
1800
3000
0000
1c00
3e00
7700
6300
6000
6000
6300
7700
3e00
1c00
0000
0000
0000
0000
ENDCHAR
STARTCHAR 264
ENCODING 264
SWIDTH 520 0
DWIDTH 12 0
BBX 12 24 0 0
BITMAP
0000
0000
0700
0700
0d80
0000
0f80
1fc0
38e0
3040
6000
6000
6000
6000
6000
6040
30e0
38c0
1fc0
0f80
0000
0000
0000
0000
ENDCHAR
STARTCHAR 265
ENCODING 265
SWIDTH 520 0
DWIDTH 9 0
BBX 9 24 0 0
BITMAP
0000
0000
0000
0000
0000
0000
1c00
1c00
3600
0000
1c00
3e00
7700
6300
6000
6000
6300
7700
3e00
1c00
0000
0000
0000
0000
ENDCHAR
STARTCHAR 266
ENCODING 266
SWIDTH 520 0
DWIDTH 12 0
BBX 12 24 0 0
BITMAP
0000
0000
0000
0600
0600
0000
0f80
1fc0
38e0
3040
6000
6000
6000
6000
6000
6040
30e0
38c0
1fc0
0f80
0000
0000
0000
0000
ENDCHAR
STARTCHAR 267
ENCODING 267
SWIDTH 520 0
DWIDTH 9 0
BBX 9 24 0 0
BITMAP
0000
0000
0000
0000
0000
0000
0000
1800
1800
0000
1c00
3e00
7700
6300
6000
6000
6300
7700
3e00
1c00
0000
0000
0000
0000
ENDCHAR
STARTCHAR 268
ENCODING 268
SWIDTH 520 0
DWIDTH 12 0
BBX 12 24 0 0
BITMAP
0000
0000
0d80
0700
0700
0000
0f80
1fc0
38e0
3040
6000
6000
6000
6000
6000
6040
30e0
38c0
1fc0
0f80
0000
0000
0000
0000
ENDCHAR
STARTCHAR 269
ENCODING 269
SWIDTH 520 0
DWIDTH 9 0
BBX 9 24 0 0
BITMAP
0000
0000
0000
0000
0000
0000
3600
1c00
1c00
0000
1c00
3e00
7700
6300
6000
6000
6300
7700
3e00
1c00
0000
0000
0000
0000
ENDCHAR
STARTCHAR 270
ENCODING 270
SWIDTH 520 0
DWIDTH 12 0
BBX 12 24 0 0
BITMAP
0000
0000
1b00
0e00
0e00
0000
7f00
7f80
61c0
60e0
6060
6060
6060
6060
6060
6060
60e0
60c0
7f80
7f00
0000
0000
0000
0000
ENDCHAR
STARTCHAR 271
ENCODING 271
SWIDTH 520 0
DWIDTH 12 0
BBX 12 24 0 0
BITMAP
0000
0000
0000
0000
0000
0000
01b0
01b0
0190
0190
1da0
3f80
7380
6180
6180
6180
6180
7380
3f80
1d80
0000
0000
0000
0000
ENDCHAR
STARTCHAR 272
ENCODING 272
SWIDTH 520 0
DWIDTH 12 0
BBX 12 24 0 0
BITMAP
0000
0000
0000
0000
0000
0000
7f00
7f80
61c0
60e0
6060
6060
fc60
fc60
6060
6060
60e0
61c0
7f80
7f00
0000
0000
0000
0000
ENDCHAR
STARTCHAR 273
ENCODING 273
SWIDTH 520 0
DWIDTH 10 0
BBX 10 24 0 0
BITMAP
0000
0000
0000
0000
0000
0000
0180
0fc0
0180
0180
1d80
3f80
7380
6180
6180
6180
6180
7380
3f80
1d80
0000
0000
0000
0000
ENDCHAR
STARTCHAR 274
ENCODING 274
SWIDTH 520 0
DWIDTH 11 0
BBX 11 24 0 0
BITMAP
0000
0000
0000
1f00
1f00
0000
7fc0
7fc0
6000
6000
6000
6000
7fc0
7fc0
6000
6000
6000
6000
7fc0
7fc0
0000
0000
0000
0000
ENDCHAR
STARTCHAR 275
ENCODING 275
SWIDTH 520 0
DWIDTH 9 0
BBX 9 24 0 0
BITMAP
0000
0000
0000
0000
0000
0000
0000
3e00
3e00
0000
1c00
3e00
6300
6300
7f00
7f00
6000
6300
3e00
1c00
0000
0000
0000
0000
ENDCHAR
STARTCHAR 276
ENCODING 276
SWIDTH 520 0
DWIDTH 11 0
BBX 11 24 0 0
BITMAP
0000
0000
1100
1f00
0e00
0000
7fc0
7fc0
6000
6000
6000
6000
7fc0
7fc0
6000
6000
6000
6000
7fc0
7fc0
0000
0000
0000
0000
ENDCHAR
STARTCHAR 277
ENCODING 277
SWIDTH 520 0
DWIDTH 9 0
BBX 9 24 0 0
BITMAP
0000
0000
0000
0000
0000
0000
2200
3e00
1c00
0000
1c00
3e00
6300
6300
7f00
7f00
6000
6300
3e00
1c00
0000
0000
0000
0000
ENDCHAR
STARTCHAR 278
ENCODING 278
SWIDTH 520 0
DWIDTH 11 0
BBX 11 24 0 0
BITMAP
0000
0000
0000
0c00
0c00
0000
7fc0
7fc0
6000
6000
6000
6000
7fc0
7fc0
6000
6000
6000
6000
7fc0
7fc0
0000
0000
0000
0000
ENDCHAR
STARTCHAR 279
ENCODING 279
SWIDTH 520 0
DWIDTH 9 0
BBX 9 24 0 0
BITMAP
0000
0000
0000
0000
0000
0000
0000
1800
1800
0000
1c00
3e00
6300
6300
7f00
7f00
6000
6300
3e00
1c00
0000
0000
0000
0000
ENDCHAR
STARTCHAR 280
ENCODING 280
SWIDTH 520 0
DWIDTH 11 0
BBX 11 24 0 0
BITMAP
0000
0000
0000
0000
0000
0000
7fc0
7fc0
6000
6000
6000
6000
7fc0
7fc0
6000
6000
6000
6000
7fc0
7fc0
0400
0400
0700
0700
ENDCHAR
STARTCHAR 281
ENCODING 281
SWIDTH 520 0
DWIDTH 9 0
BBX 9 24 0 0
BITMAP
0000
0000
0000
0000
0000
0000
0000
0000
0000
0000
1c00
3e00
6300
6300
7f00
7f00
6000
6300
3e00
1c00
0800
0800
0e00
0e00
ENDCHAR
STARTCHAR 282
ENCODING 282
SWIDTH 520 0
DWIDTH 11 0
BBX 11 24 0 0
BITMAP
0000
0000
1b00
0e00
0e00
0000
7fc0
7fc0
6000
6000
6000
6000
7fc0
7fc0
6000
6000
6000
6000
7fc0
7fc0
0000
0000
0000
0000
ENDCHAR
STARTCHAR 283
ENCODING 283
SWIDTH 520 0
DWIDTH 9 0
BBX 9 24 0 0
BITMAP
0000
0000
0000
0000
0000
0000
3600
1c00
1c00
0000
1c00
3e00
6300
6300
7f00
7f00
6000
6300
3e00
1c00
0000
0000
0000
0000
ENDCHAR
STARTCHAR 284
ENCODING 284
SWIDTH 520 0
DWIDTH 13 0
BBX 13 24 0 0
BITMAP
0000
0000
0700
0700
0d80
0000
0fc0
1fe0
3870
3030
6000
6000
61f0
61f0
6030
6030
3030
3870
1fe0
0f80
0000
0000
0000
0000
ENDCHAR
STARTCHAR 285
ENCODING 285
SWIDTH 520 0
DWIDTH 10 0
BBX 10 24 0 0
BITMAP
0000
0000
0000
0000
0000
0000
0e00
0e00
1b00
0000
1d80
3f80
7380
6180
6180
6180
6180
7380
3f80
1d80
0180
6180
7f00
3e00
ENDCHAR
STARTCHAR 286
ENCODING 286
SWIDTH 520 0
DWIDTH 13 0
BBX 13 24 0 0
BITMAP
0000
0000
0880
0f80
0700
0000
0fc0
1fe0
3870
3030
6000
6000
61f0
61f0
6030
6030
3030
3870
1fe0
0f80
0000
0000
0000
0000
ENDCHAR
STARTCHAR 287
ENCODING 287
SWIDTH 520 0
DWIDTH 10 0
BBX 10 24 0 0
BITMAP
0000
0000
0000
0000
0000
0000
1100
1f00
0e00
0000
1d80
3f80
7380
6180
6180
6180
6180
7380
3f80
1d80
0180
6180
7f00
3e00
ENDCHAR
STARTCHAR 288
ENCODING 288
SWIDTH 520 0
DWIDTH 13 0
BBX 13 24 0 0
BITMAP
0000
0000
0000
0600
0600
0000
0fc0
1fe0
3870
3030
6000
6000
61f0
61f0
6030
6030
3030
3870
1fe0
0f80
0000
0000
0000
0000
ENDCHAR
STARTCHAR 289
ENCODING 289
SWIDTH 520 0
DWIDTH 10 0
BBX 10 24 0 0
BITMAP
0000
0000
0000
0000
0000
0000
0000
0c00
0c00
0000
1d80
3f80
7380
6180
6180
6180
6180
7380
3f80
1d80
0180
6180
7f00
3e00
ENDCHAR
STARTCHAR 290
ENCODING 290
SWIDTH 520 0
DWIDTH 13 0
BBX 13 24 0 0
BITMAP
0000
0000
0000
0000
0000
0000
0fc0
1fe0
3870
3030
6000
6000
61f0
61f0
6030
6030
3030
3870
1fe0
0f80
0700
0300
0300
0e00
ENDCHAR
STARTCHAR 291
ENCODING 291
SWIDTH 520 0
DWIDTH 10 0
BBX 10 24 0 0
BITMAP
0000
0000
0000
0000
0000
0400
0800
0c00
0c00
0000
1d80
3f80
7380
6180
6180
6180
6180
7380
3f80
1d80
0180
6180
7f00
3e00
ENDCHAR
STARTCHAR 292
ENCODING 292
SWIDTH 520 0
DWIDTH 12 0
BBX 12 24 0 0
BITMAP
0000
0000
0700
0700
0d80
0000
6060
6060
6060
6060
6060
6060
7fe0
7fe0
6060
6060
6060
6060
6060
6060
0000
0000
0000
0000
ENDCHAR
STARTCHAR 293
ENCODING 293
SWIDTH 520 0
DWIDTH 10 0
BBX 10 24 0 0
BITMAP
0000
0000
1c00
1c00
3600
0000
6000
6000
6000
6000
6f00
7f80
7180
6180
6180
6180
6180
6180
6180
6180
0000
0000
0000
0000
ENDCHAR
STARTCHAR 294
ENCODING 294
SWIDTH 520 0
DWIDTH 12 0
BBX 12 24 0 0
BITMAP
0000
0000
0000
0000
0000
0000
6060
6060
fff0
fff0
6060
6060
7fe0
7fe0
6060
6060
6060
6060
6060
6060
0000
0000
0000
0000
ENDCHAR
STARTCHAR 295
ENCODING 295
SWIDTH 520 0
DWIDTH 10 0
BBX 10 24 0 0
BITMAP
0000
0000
0000
0000
0000
0000
6000
fc00
6000
6000
6f00
7f80
7180
6180
6180
6180
6180
6180
6180
6180
0000
0000
0000
0000
ENDCHAR
STARTCHAR 296
ENCODING 296
SWIDTH 520 0
DWIDTH 4 0
BBX 4 24 0 0
BITMAP
00
00
90
f0
30
00
60
60
60
60
60
60
60
60
60
60
60
60
60
60
00
00
00
00
ENDCHAR
STARTCHAR 297
ENCODING 297
SWIDTH 520 0
DWIDTH 4 0
BBX 4 24 0 0
BITMAP
00
00
00
00
00
00
90
f0
30
00
60
60
60
60
60
60
60
60
60
60
00
00
00
00
ENDCHAR
STARTCHAR 298
ENCODING 298
SWIDTH 520 0
DWIDTH 4 0
BBX 4 24 0 0
BITMAP
00
00
00
f0
f0
00
60
60
60
60
60
60
60
60
60
60
60
60
60
60
00
00
00
00
ENDCHAR
STARTCHAR 299
ENCODING 299
SWIDTH 520 0
DWIDTH 4 0
BBX 4 24 0 0
BITMAP
00
00
00
00
00
00
00
f0
f0
00
60
60
60
60
60
60
60
60
60
60
00
00
00
00
ENDCHAR
STARTCHAR 300
ENCODING 300
SWIDTH 520 0
DWIDTH 4 0
BBX 4 24 0 0
BITMAP
00
00
10
f0
e0
00
60
60
60
60
60
60
60
60
60
60
60
60
60
60
00
00
00
00
ENDCHAR
STARTCHAR 301
ENCODING 301
SWIDTH 520 0
DWIDTH 4 0
BBX 4 24 0 0
BITMAP
00
00
00
00
00
00
10
f0
e0
00
60
60
60
60
60
60
60
60
60
60
00
00
00
00
ENDCHAR
STARTCHAR 302
ENCODING 302
SWIDTH 520 0
DWIDTH 4 0
BBX 4 24 0 0
BITMAP
00
00
00
00
00
00
60
60
60
60
60
60
60
60
60
60
60
60
60
60
40
40
70
70
ENDCHAR
STARTCHAR 303
ENCODING 303
SWIDTH 520 0
DWIDTH 4 0
BBX 4 24 0 0
BITMAP
00
00
00
00
00
00
60
60
60
00
60
60
60
60
60
60
60
60
60
60
40
40
70
70
ENDCHAR
STARTCHAR 304
ENCODING 304
SWIDTH 520 0
DWIDTH 4 0
BBX 4 24 0 0
BITMAP
00
00
00
60
60
00
60
60
60
60
60
60
60
60
60
60
60
60
60
60
00
00
00
00
ENDCHAR
STARTCHAR 305
ENCODING 305
SWIDTH 520 0
DWIDTH 4 0
BBX 4 24 0 0
BITMAP
00
00
00
00
00
00
00
00
00
00
60
60
60
60
60
60
60
60
60
60
00
00
00
00
ENDCHAR
STARTCHAR 306
ENCODING 306
SWIDTH 520 0
DWIDTH 14 0
BBX 14 24 0 0
BITMAP
0000
0000
0000
0000
0000
0000
6018
6018
6018
6018
6018
6018
6018
6018
6018
6618
6618
6718
63f0
61e0
0000
0000
0000
0000
ENDCHAR
STARTCHAR 307
ENCODING 307
SWIDTH 520 0
DWIDTH 9 0
BBX 9 24 0 0
BITMAP
0000
0000
0000
0000
0000
0000
6300
6300
6300
0000
6300
6300
6300
6300
6300
6300
6300
6300
6300
6300
0300
0300
0f00
0e00
ENDCHAR
STARTCHAR 308
ENCODING 308
SWIDTH 520 0
DWIDTH 9 0
BBX 9 24 0 0
BITMAP
0000
0000
0380
0380
0680
0000
0300
0300
0300
0300
0300
0300
0300
0300
0300
c300
c300
e300
7e00
3c00
0000
0000
0000
0000
ENDCHAR
STARTCHAR 309
ENCODING 309
SWIDTH 520 0
DWIDTH 5 0
BBX 5 24 0 0
BITMAP
00
00
00
00
00
00
70
70
d8
00
60
60
60
60
60
60
60
60
60
60
60
60
e0
c0
ENDCHAR
STARTCHAR 310
ENCODING 310
SWIDTH 520 0
DWIDTH 12 0
BBX 12 24 0 0
BITMAP
0000
0000
0000
0000
0000
0000
6060
60c0
6180
6300
6600
6e00
7e00
7300
6300
6180
6180
60c0
6060
6060
0700
0300
0300
0e00
ENDCHAR
STARTCHAR 311
ENCODING 311
SWIDTH 520 0
DWIDTH 9 0
BBX 9 24 0 0
BITMAP
0000
0000
0000
0000
0000
0000
6000
6000
6000
6000
6300
6600
6e00
7c00
7c00
7e00
6600
6600
6300
6300
1c00
0c00
0c00
3800
ENDCHAR
STARTCHAR 312
ENCODING 312
SWIDTH 520 0
DWIDTH 9 0
BBX 9 24 0 0
BITMAP
0000
0000
0000
0000
0000
0000
0000
0000
0000
0000
6300
6600
6c00
7800
7000
7800
6c00
6600
6300
6380
0000
0000
0000
0000
ENDCHAR
STARTCHAR 313
ENCODING 313
SWIDTH 520 0
DWIDTH 10 0
BBX 10 24 0 0
BITMAP
0000
0000
0000
0c00
1800
0000
6000
6000
6000
6000
6000
6000
6000
6000
6000
6000
6000
6000
7f80
7f80
0000
0000
0000
0000
ENDCHAR
STARTCHAR 314
ENCODING 314
SWIDTH 520 0
DWIDTH 4 0
BBX 4 24 0 0
BITMAP
00
00
00
60
c0
00
60
60
60
60
60
60
60
60
60
60
60
60
60
60
00
00
00
00
ENDCHAR
STARTCHAR 315
ENCODING 315
SWIDTH 520 0
DWIDTH 10 0
BBX 10 24 0 0
BITMAP
0000
0000
0000
0000
0000
0000
6000
6000
6000
6000
6000
6000
6000
6000
6000
6000
6000
6000
7f80
7f80
1c00
0c00
0c00
3800
ENDCHAR
STARTCHAR 316
ENCODING 316
SWIDTH 520 0
DWIDTH 4 0
BBX 4 24 0 0
BITMAP
00
00
00
00
00
00
60
60
60
60
60
60
60
60
60
60
60
60
60
60
e0
60
60
c0
ENDCHAR
STARTCHAR 317
ENCODING 317
SWIDTH 520 0
DWIDTH 10 0
BBX 10 24 0 0
BITMAP
0000
0000
0000
0000
0000
0000
6300
6300
6100
6200
6000
6000
6000
6000
6000
6000
6000
6000
7f80
7f80
0000
0000
0000
0000
ENDCHAR
STARTCHAR 318
ENCODING 318
SWIDTH 520 0
DWIDTH 6 0
BBX 6 24 0 0
BITMAP
00
00
00
00
00
00
6c
6c
64
64
68
60
60
60
60
60
60
60
60
60
00
00
00
00
ENDCHAR
STARTCHAR 319
ENCODING 319
SWIDTH 520 0
DWIDTH 10 0
BBX 10 24 0 0
BITMAP
0000
0000
0000
0000
0000
0000
6000
6000
6000
6000
6000
6000
6300
6300
6000
6000
6000
6000
7f80
7f80
0000
0000
0000
0000
ENDCHAR
STARTCHAR 320
ENCODING 320
SWIDTH 520 0
DWIDTH 7 0
BBX 7 24 0 0
BITMAP
00
00
00
00
00
00
60
60
60
60
60
60
66
66
60
60
60
60
60
60
00
00
00
00
ENDCHAR
STARTCHAR 321
ENCODING 321
SWIDTH 520 0
DWIDTH 10 0
BBX 10 24 0 0
BITMAP
0000
0000
0000
0000
0000
0000
6000
6000
6000
6000
6800
7800
7000
6000
e000
e000
6000
6000
7f80
7f80
0000
0000
0000
0000
ENDCHAR
STARTCHAR 322
ENCODING 322
SWIDTH 520 0
DWIDTH 5 0
BBX 5 24 0 0
BITMAP
00
00
00
00
00
00
60
60
60
60
60
70
60
60
60
e0
60
60
60
60
00
00
00
00
ENDCHAR
STARTCHAR 323
ENCODING 323
SWIDTH 520 0
DWIDTH 12 0
BBX 12 24 0 0
BITMAP
0000
0000
0000
0600
0c00
0000
6060
7060
7860
7860
7c60
6c60
6e60
6660
6360
63e0
61e0
61e0
60e0
60e0
0000
0000
0000
0000
ENDCHAR
STARTCHAR 324
ENCODING 324
SWIDTH 520 0
DWIDTH 10 0
BBX 10 24 0 0
BITMAP
0000
0000
0000
0000
0000
0000
0000
0c00
1800
0000
6f00
7f80
7180
6180
6180
6180
6180
6180
6180
6180
0000
0000
0000
0000
ENDCHAR
STARTCHAR 325
ENCODING 325
SWIDTH 520 0
DWIDTH 12 0
BBX 12 24 0 0
BITMAP
0000
0000
0000
0000
0000
0000
6060
7060
7860
7860
7c60
6c60
6e60
6660
6360
63e0
61e0
61e0
60e0
60e0
0e00
0600
0600
1c00
ENDCHAR
STARTCHAR 326
ENCODING 326
SWIDTH 520 0
DWIDTH 10 0
BBX 10 24 0 0
BITMAP
0000
0000
0000
0000
0000
0000
0000
0000
0000
0000
6f00
7f80
7180
6180
6180
6180
6180
6180
6180
6180
1c00
0c00
0c00
3800
ENDCHAR
STARTCHAR 327
ENCODING 327
SWIDTH 520 0
DWIDTH 12 0
BBX 12 24 0 0
BITMAP
0000
0000
0d80
0700
0700
0000
6060
7060
7860
7860
7c60
6c60
6e60
6660
6360
63e0
61e0
61e0
60e0
60e0
0000
0000
0000
0000
ENDCHAR
STARTCHAR 328
ENCODING 328
SWIDTH 520 0
DWIDTH 10 0
BBX 10 24 0 0
BITMAP
0000
0000
0000
0000
0000
0000
1b00
0e00
0e00
0000
6f00
7f80
7180
6180
6180
6180
6180
6180
6180
6180
0000
0000
0000
0000
ENDCHAR
STARTCHAR 329
ENCODING 329
SWIDTH 520 0
DWIDTH 14 0
BBX 14 24 0 0
BITMAP
0000
0000
0000
0000
0000
0000
6000
6000
2000
2000
4de0
0ff0
0e30
0c30
0c30
0c30
0c30
0c30
0c30
0c30
0000
0000
0000
0000
ENDCHAR
STARTCHAR 330
ENCODING 330
SWIDTH 520 0
DWIDTH 12 0
BBX 12 24 0 0
BITMAP
0000
0000
0000
0000
0000
0000
6780
7fc0
78c0
7060
6060
6060
6060
6060
6060
6060
6060
60e0
63c0
6780
0000
0000
0000
0000
ENDCHAR
STARTCHAR 331
ENCODING 331
SWIDTH 520 0
DWIDTH 10 0
BBX 10 24 0 0
BITMAP
0000
0000
0000
0000
0000
0000
0000
0000
0000
0000
6f00
7f80
7180
6180
6180
6180
6180
6180
6180
6180
0180
0180
0780
0700
ENDCHAR
STARTCHAR 332
ENCODING 332
SWIDTH 520 0
DWIDTH 13 0
BBX 13 24 0 0
BITMAP
0000
0000
0000
0f80
0f80
0000
0f80
1fc0
38e0
3060
6030
6030
6030
6030
6030
6030
3060
38e0
1fc0
0f80
0000
0000
0000
0000
ENDCHAR
STARTCHAR 333
ENCODING 333
SWIDTH 520 0
DWIDTH 10 0
BBX 10 24 0 0
BITMAP
0000
0000
0000
0000
0000
0000
0000
1f00
1f00
0000
1e00
3f00
7380
6180
6180
6180
6180
7380
3f00
1e00
0000
0000
0000
0000
ENDCHAR
STARTCHAR 334
ENCODING 334
SWIDTH 520 0
DWIDTH 13 0
BBX 13 24 0 0
BITMAP
0000
0000
0880
0f80
0700
0000
0f80
1fc0
38e0
3060
6030
6030
6030
6030
6030
6030
3060
38e0
1fc0
0f80
0000
0000
0000
0000
ENDCHAR
STARTCHAR 335
ENCODING 335
SWIDTH 520 0
DWIDTH 10 0
BBX 10 24 0 0
BITMAP
0000
0000
0000
0000
0000
0000
1100
1f00
0e00
0000
1e00
3f00
7380
6180
6180
6180
6180
7380
3f00
1e00
0000
0000
0000
0000
ENDCHAR
STARTCHAR 336
ENCODING 336
SWIDTH 520 0
DWIDTH 13 0
BBX 13 24 0 0
BITMAP
0000
0000
0000
06c0
0d80
0000
0f80
1fc0
38e0
3060
6030
6030
6030
6030
6030
6030
3060
38e0
1fc0
0f80
0000
0000
0000
0000
ENDCHAR
STARTCHAR 337
ENCODING 337
SWIDTH 520 0
DWIDTH 10 0
BBX 10 24 0 0
BITMAP
0000
0000
0000
0000
0000
0000
0000
0d80
1b00
0000
1e00
3f00
7380
6180
6180
6180
6180
7380
3f00
1e00
0000
0000
0000
0000
ENDCHAR
STARTCHAR 338
ENCODING 338
SWIDTH 520 0
DWIDTH 16 0
BBX 16 24 0 0
BITMAP
0000
0000
0000
0000
0000
0000
1efe
3ffe
31c0
60c0
60c0
60fe
60fe
60c0
60c0
60c0
70c0
31c0
3ffe
1efe
0000
0000
0000
0000
ENDCHAR
STARTCHAR 339
ENCODING 339
SWIDTH 520 0
DWIDTH 15 0
BBX 15 24 0 0
BITMAP
0000
0000
0000
0000
0000
0000
0000
0000
0000
0000
1e70
3ff8
738c
618c
61fc
61fc
6180
73cc
3ff8
1e70
0000
0000
0000
0000
ENDCHAR
STARTCHAR 340
ENCODING 340
SWIDTH 520 0
DWIDTH 12 0
BBX 12 24 0 0
BITMAP
0000
0000
0000
0600
0c00
0000
7f80
7fc0
60e0
6060
6060
60e0
7fc0
7f80
6380
6180
60c0
60e0
6060
6030
0000
0000
0000
0000
ENDCHAR
STARTCHAR 341
ENCODING 341
SWIDTH 520 0
DWIDTH 6 0
BBX 6 24 0 0
BITMAP
00
00
00
00
00
00
00
30
60
00
6c
7c
60
60
60
60
60
60
60
60
00
00
00
00
ENDCHAR
STARTCHAR 342
ENCODING 342
SWIDTH 520 0
DWIDTH 12 0
BBX 12 24 0 0
BITMAP
0000
0000
0000
0000
0000
0000
7f80
7fc0
60e0
6060
6060
60e0
7fc0
7f80
6380
6180
60c0
60e0
6060
6030
0e00
0600
0600
1c00
ENDCHAR
STARTCHAR 343
ENCODING 343
SWIDTH 520 0
DWIDTH 6 0
BBX 6 24 0 0
BITMAP
00
00
00
00
00
00
00
00
00
00
6c
7c
60
60
60
60
60
60
60
60
38
18
18
70
ENDCHAR
STARTCHAR 344
ENCODING 344
SWIDTH 520 0
DWIDTH 12 0
BBX 12 24 0 0
BITMAP
0000
0000
0d80
0700
0700
0000
7f80
7fc0
60e0
6060
6060
60e0
7fc0
7f80
6380
6180
60c0
60e0
6060
6030
0000
0000
0000
0000
ENDCHAR
STARTCHAR 345
ENCODING 345
SWIDTH 520 0
DWIDTH 6 0
BBX 6 24 0 0
BITMAP
00
00
00
00
00
00
6c
38
38
00
6c
7c
60
60
60
60
60
60
60
60
00
00
00
00
ENDCHAR
STARTCHAR 346
ENCODING 346
SWIDTH 520 0
DWIDTH 11 0
BBX 11 24 0 0
BITMAP
0000
0000
0000
0300
0600
0000
1f00
3f80
71c0
60c0
6000
7000
3e00
0f80
01c0
60c0
60c0
71c0
3f80
1f00
0000
0000
0000
0000
ENDCHAR
STARTCHAR 347
ENCODING 347
SWIDTH 520 0
DWIDTH 9 0
BBX 9 24 0 0
BITMAP
0000
0000
0000
0000
0000
0000
0000
1800
3000
0000
3e00
7f00
6300
7000
7e00
3f00
0700
6300
7f00
3e00
0000
0000
0000
0000
ENDCHAR
STARTCHAR 348
ENCODING 348
SWIDTH 520 0
DWIDTH 11 0
BBX 11 24 0 0
BITMAP
0000
0000
0e00
0e00
1b00
0000
1f00
3f80
71c0
60c0
6000
7000
3e00
0f80
01c0
60c0
60c0
71c0
3f80
1f00
0000
0000
0000
0000
ENDCHAR
STARTCHAR 349
ENCODING 349
SWIDTH 520 0
DWIDTH 9 0
BBX 9 24 0 0
BITMAP
0000
0000
0000
0000
0000
0000
1c00
1c00
3600
0000
3e00
7f00
6300
7000
7e00
3f00
0700
6300
7f00
3e00
0000
0000
0000
0000
ENDCHAR
STARTCHAR 350
ENCODING 350
SWIDTH 520 0
DWIDTH 11 0
BBX 11 24 0 0
BITMAP
0000
0000
0000
0000
0000
0000
1f00
3f80
71c0
60c0
6000
7000
3e00
0f80
01c0
60c0
60c0
71c0
3f80
1f00
0e00
0600
0600
1c00
ENDCHAR
STARTCHAR 351
ENCODING 351
SWIDTH 520 0
DWIDTH 9 0
BBX 9 24 0 0
BITMAP
0000
0000
0000
0000
0000
0000
0000
0000
0000
0000
3e00
7f00
6300
7000
7e00
3f00
0700
6300
7f00
3e00
1c00
0c00
0c00
3800
ENDCHAR
STARTCHAR 352
ENCODING 352
SWIDTH 520 0
DWIDTH 11 0
BBX 11 24 0 0
BITMAP
0000
0000
1b00
0e00
0e00
0000
1f00
3f80
71c0
60c0
6000
7000
3e00
0f80
01c0
60c0
60c0
71c0
3f80
1f00
0000
0000
0000
0000
ENDCHAR
STARTCHAR 353
ENCODING 353
SWIDTH 520 0
DWIDTH 9 0
BBX 9 24 0 0
BITMAP
0000
0000
0000
0000
0000
0000
3600
1c00
1c00
0000
3e00
7f00
6300
7000
7e00
3f00
0700
6300
7f00
3e00
0000
0000
0000
0000
ENDCHAR
STARTCHAR 354
ENCODING 354
SWIDTH 520 0
DWIDTH 10 0
BBX 10 24 0 0
BITMAP
0000
0000
0000
0000
0000
0000
7f80
7f80
0c00
0c00
0c00
0c00
0c00
0c00
0c00
0c00
0c00
0c00
0c00
0c00
0e00
0600
0600
1c00
ENDCHAR
STARTCHAR 355
ENCODING 355
SWIDTH 520 0
DWIDTH 5 0
BBX 5 24 0 0
BITMAP
00
00
00
00
00
00
20
60
60
60
f8
f8
60
60
60
60
60
60
78
38
70
30
30
e0
ENDCHAR
STARTCHAR 356
ENCODING 356
SWIDTH 520 0
DWIDTH 10 0
BBX 10 24 0 0
BITMAP
0000
0000
1b00
0e00
0e00
0000
7f80
7f80
0c00
0c00
0c00
0c00
0c00
0c00
0c00
0c00
0c00
0c00
0c00
0c00
0000
0000
0000
0000
ENDCHAR
STARTCHAR 357
ENCODING 357
SWIDTH 520 0
DWIDTH 8 0
BBX 8 24 0 0
BITMAP
00
00
00
00
00
00
23
63
61
62
f8
f8
60
60
60
60
60
60
78
38
00
00
00
00
ENDCHAR
STARTCHAR 358
ENCODING 358
SWIDTH 520 0
DWIDTH 10 0
BBX 10 24 0 0
BITMAP
0000
0000
0000
0000
0000
0000
7f80
7f80
0c00
0c00
0c00
0c00
0c00
3f00
3f00
0c00
0c00
0c00
0c00
0c00
0000
0000
0000
0000
ENDCHAR
STARTCHAR 359
ENCODING 359
SWIDTH 520 0
DWIDTH 5 0
BBX 5 24 0 0
BITMAP
00
00
00
00
00
00
20
60
60
60
f8
f8
60
60
f8
f8
60
60
78
38
00
00
00
00
ENDCHAR
STARTCHAR 360
ENCODING 360
SWIDTH 520 0
DWIDTH 12 0
BBX 12 24 0 0
BITMAP
0000
0000
0480
0f80
0980
0000
6060
6060
6060
6060
6060
6060
6060
6060
6060
6060
6060
70e0
3fc0
1f80
0000
0000
0000
0000
ENDCHAR
STARTCHAR 361
ENCODING 361
SWIDTH 520 0
DWIDTH 10 0
BBX 10 24 0 0
BITMAP
0000
0000
0000
0000
0000
0000
0900
1f00
1300
0000
6180
6180
6180
6180
6180
6180
6180
6380
7f80
3d80
0000
0000
0000
0000
ENDCHAR
STARTCHAR 362
ENCODING 362
SWIDTH 520 0
DWIDTH 12 0
BBX 12 24 0 0
BITMAP
0000
0000
0000
0f80
0f80
0000
6060
6060
6060
6060
6060
6060
6060
6060
6060
6060
6060
70e0
3fc0
1f80
0000
0000
0000
0000
ENDCHAR
STARTCHAR 363
ENCODING 363
SWIDTH 520 0
DWIDTH 10 0
BBX 10 24 0 0
BITMAP
0000
0000
0000
0000
0000
0000
0000
1f00
1f00
0000
6180
6180
6180
6180
6180
6180
6180
6380
7f80
3d80
0000
0000
0000
0000
ENDCHAR
STARTCHAR 364
ENCODING 364
SWIDTH 520 0
DWIDTH 12 0
BBX 12 24 0 0
BITMAP
0000
0000
0880
0f80
0700
0000
6060
6060
6060
6060
6060
6060
6060
6060
6060
6060
6060
70e0
3fc0
1f80
0000
0000
0000
0000
ENDCHAR
STARTCHAR 365
ENCODING 365
SWIDTH 520 0
DWIDTH 10 0
BBX 10 24 0 0
BITMAP
0000
0000
0000
0000
0000
0000
1100
1f00
0e00
0000
6180
6180
6180
6180
6180
6180
6180
6380
7f80
3d80
0000
0000
0000
0000
ENDCHAR
STARTCHAR 366
ENCODING 366
SWIDTH 520 0
DWIDTH 12 0
BBX 12 24 0 0
BITMAP
0000
0200
0500
0500
0200
0000
6060
6060
6060
6060
6060
6060
6060
6060
6060
6060
6060
70e0
3fc0
1f80
0000
0000
0000
0000
ENDCHAR
STARTCHAR 367
ENCODING 367
SWIDTH 520 0
DWIDTH 10 0
BBX 10 24 0 0
BITMAP
0000
0000
0000
0000
0000
0400
0a00
0a00
0400
0000
6180
6180
6180
6180
6180
6180
6180
6380
7f80
3d80
0000
0000
0000
0000
ENDCHAR
STARTCHAR 368
ENCODING 368
SWIDTH 520 0
DWIDTH 12 0
BBX 12 24 0 0
BITMAP
0000
0000
0000
06c0
0d80
0000
6060
6060
6060
6060
6060
6060
6060
6060
6060
6060
6060
70e0
3fc0
1f80
0000
0000
0000
0000
ENDCHAR
STARTCHAR 369
ENCODING 369
SWIDTH 520 0
DWIDTH 10 0
BBX 10 24 0 0
BITMAP
0000
0000
0000
0000
0000
0000
0000
0d80
1b00
0000
6180
6180
6180
6180
6180
6180
6180
6380
7f80
3d80
0000
0000
0000
0000
ENDCHAR
STARTCHAR 370
ENCODING 370
SWIDTH 520 0
DWIDTH 12 0
BBX 12 24 0 0
BITMAP
0000
0000
0000
0000
0000
0000
6060
6060
6060
6060
6060
6060
6060
6060
6060
6060
6060
70e0
3fc0
1f80
0400
0400
0700
0700
ENDCHAR
STARTCHAR 371
ENCODING 371
SWIDTH 520 0
DWIDTH 10 0
BBX 10 24 0 0
BITMAP
0000
0000
0000
0000
0000
0000
0000
0000
0000
0000
6180
6180
6180
6180
6180
6180
6180
6380
7f80
3d80
0100
0100
01c0
01c0
ENDCHAR
STARTCHAR 372
ENCODING 372
SWIDTH 520 0
DWIDTH 15 0
BBX 15 24 0 0
BITMAP
0000
0000
0380
0380
06c0
0000
c386
c386
638c
628c
66cc
66cc
36d8
36d8
36d8
3458
1c70
1c70
1c70
1c70
0000
0000
0000
0000
ENDCHAR
STARTCHAR 373
ENCODING 373
SWIDTH 520 0
DWIDTH 13 0
BBX 13 24 0 0
BITMAP
0000
0000
0000
0000
0000
0000
0700
0700
0d80
0000
6730
6730
3760
3760
3560
3560
1540
1dc0
1dc0
1dc0
0000
0000
0000
0000
ENDCHAR
STARTCHAR 374
ENCODING 374
SWIDTH 520 0
DWIDTH 10 0
BBX 10 24 0 0
BITMAP
0000
0000
1c00
1c00
3600
0000
c0c0
6180
6180
3300
3300
1e00
1e00
0c00
0c00
0c00
0c00
0c00
0c00
0c00
0000
0000
0000
0000
ENDCHAR
STARTCHAR 375
ENCODING 375
SWIDTH 520 0
DWIDTH 9 0
BBX 9 24 0 0
BITMAP
0000
0000
0000
0000
0000
0000
1c00
1c00
3600
0000
c180
e380
6300
6300
7700
3600
3600
3e00
1c00
1c00
1c00
1800
7800
7000
ENDCHAR
STARTCHAR 376
ENCODING 376
SWIDTH 520 0
DWIDTH 10 0
BBX 10 24 0 0
BITMAP
0000
0000
0000
3600
3600
0000
c0c0
6180
6180
3300
3300
1e00
1e00
0c00
0c00
0c00
0c00
0c00
0c00
0c00
0000
0000
0000
0000
ENDCHAR
STARTCHAR 377
ENCODING 377
SWIDTH 520 0
DWIDTH 10 0
BBX 10 24 0 0
BITMAP
0000
0000
0000
0600
0c00
0000
3fc0
3fc0
01c0
0180
0300
0700
0600
0c00
1800
1800
3000
6000
7fc0
7fc0
0000
0000
0000
0000
ENDCHAR
STARTCHAR 378
ENCODING 378
SWIDTH 520 0
DWIDTH 8 0
BBX 8 24 0 0
BITMAP
00
00
00
00
00
00
00
18
30
00
ff
ff
06
0c
1c
38
30
60
ff
ff
00
00
00
00
ENDCHAR
STARTCHAR 379
ENCODING 379
SWIDTH 520 0
DWIDTH 10 0
BBX 10 24 0 0
BITMAP
0000
0000
0000
0600
0600
0000
3fc0
3fc0
01c0
0180
0300
0700
0600
0c00
1800
1800
3000
6000
7fc0
7fc0
0000
0000
0000
0000
ENDCHAR
STARTCHAR 380
ENCODING 380
SWIDTH 520 0
DWIDTH 8 0
BBX 8 24 0 0
BITMAP
00
00
00
00
00
00
00
18
18
00
ff
ff
06
0c
1c
38
30
60
ff
ff
00
00
00
00
ENDCHAR
STARTCHAR 381
ENCODING 381
SWIDTH 520 0
DWIDTH 10 0
BBX 10 24 0 0
BITMAP
0000
0000
1b00
0e00
0e00
0000
3fc0
3fc0
01c0
0180
0300
0700
0600
0c00
1800
1800
3000
6000
7fc0
7fc0
0000
0000
0000
0000
ENDCHAR
STARTCHAR 382
ENCODING 382
SWIDTH 520 0
DWIDTH 8 0
BBX 8 24 0 0
BITMAP
00
00
00
00
00
00
36
1c
1c
00
ff
ff
06
0c
1c
38
30
60
ff
ff
00
00
00
00
ENDCHAR
STARTCHAR 383
ENCODING 383
SWIDTH 520 0
DWIDTH 5 0
BBX 5 24 0 0
BITMAP
00
00
00
00
00
00
38
78
60
60
60
60
60
60
60
60
60
60
60
60
00
00
00
00
ENDCHAR
STARTCHAR 915
ENCODING 915
SWIDTH 520 0
DWIDTH 10 0
BBX 10 24 0 0
BITMAP
0000
0000
0000
0000
0000
0000
7f80
7f80
6000
6000
6000
6000
6000
6000
6000
6000
6000
6000
6000
6000
0000
0000
0000
0000
ENDCHAR
STARTCHAR 916
ENCODING 916
SWIDTH 520 0
DWIDTH 12 0
BBX 12 24 0 0
BITMAP
0000
0000
0000
0000
0000
0000
0e00
0e00
1b00
1b00
1b00
3180
3180
3180
3180
60c0
60c0
60c0
ffe0
ffe0
0000
0000
0000
0000
ENDCHAR
STARTCHAR 920
ENCODING 920
SWIDTH 520 0
DWIDTH 13 0
BBX 13 24 0 0
BITMAP
0000
0000
0000
0000
0000
0000
0f80
1fc0
38e0
3060
6030
6030
6730
6730
6030
6030
3060
38e0
1fc0
0f80
0000
0000
0000
0000
ENDCHAR
STARTCHAR 923
ENCODING 923
SWIDTH 520 0
DWIDTH 11 0
BBX 11 24 0 0
BITMAP
0000
0000
0000
0000
0000
0000
0e00
0e00
1b00
1b00
1b00
3180
3180
3180
31c0
60c0
60c0
60c0
c060
c060
0000
0000
0000
0000
ENDCHAR
STARTCHAR 926
ENCODING 926
SWIDTH 520 0
DWIDTH 11 0
BBX 11 24 0 0
BITMAP
0000
0000
0000
0000
0000
0000
7fc0
7fc0
0000
0000
0000
0000
3f80
3f80
0000
0000
0000
0000
7fc0
7fc0
0000
0000
0000
0000
ENDCHAR
STARTCHAR 928
ENCODING 928
SWIDTH 520 0
DWIDTH 12 0
BBX 12 24 0 0
BITMAP
0000
0000
0000
0000
0000
0000
7fe0
7fe0
6060
6060
6060
6060
6060
6060
6060
6060
6060
6060
6060
6060
0000
0000
0000
0000
ENDCHAR
STARTCHAR 931
ENCODING 931
SWIDTH 520 0
DWIDTH 10 0
BBX 10 24 0 0
BITMAP
0000
0000
0000
0000
0000
0000
7f80
7f80
6000
3000
1800
0c00
0600
0c00
1800
1800
3000
6000
7f80
7f80
0000
0000
0000
0000
ENDCHAR
STARTCHAR 934
ENCODING 934
SWIDTH 520 0
DWIDTH 13 0
BBX 13 24 0 0
BITMAP
0000
0000
0000
0000
0000
0000
0600
1f80
7fe0
6660
c630
c630
c630
c630
c630
6660
7fe0
1f80
0600
0600
0000
0000
0000
0000
ENDCHAR
STARTCHAR 936
ENCODING 936
SWIDTH 520 0
DWIDTH 13 0
BBX 13 24 0 0
BITMAP
0000
0000
0000
0000
0000
0000
6660
6660
6660
6660
6660
6660
76e0
3fc0
1f80
0600
0600
0600
0600
0600
0000
0000
0000
0000
ENDCHAR
STARTCHAR 937
ENCODING 937
SWIDTH 520 0
DWIDTH 13 0
BBX 13 24 0 0
BITMAP
0000
0000
0000
0000
0000
0000
0f80
1fc0
38e0
7070
6030
6030
6030
6030
6030
2020
3060
18c0
7df0
7df0
0000
0000
0000
0000
ENDCHAR
STARTCHAR 8364
ENCODING 8364
SWIDTH 520 0
DWIDTH 9 0
BBX 9 24 0 0
BITMAP
0000
0000
0000
0000
0000
0000
0e00
1f00
3100
3000
6000
6000
fe00
6000
fe00
6000
3000
3100
1f00
0e00
0000
0000
0000
0000
ENDCHAR
ENDFONT
